<svg width="110" height="120" viewBox="0 0 110 120" fill="none" xmlns="http://www.w3.org/2000/svg">
<path d="M107 3H3V83.5L56 115.5L107 83.5V3Z" fill="white" stroke="#FEDB4B" stroke-width="6"/>
<g clip-path="url(#clip0)">
<path d="M18.1665 29.1518C18.2979 29.0337 18.2692 28.871 18.3008 28.7283C18.5989 27.3662 19.368 26.127 20.495 25.1927C20.5473 25.1504 20.6028 25.1115 20.661 25.0763C20.6773 25.0658 20.7051 25.0711 20.732 25.0693C20.7608 25.184 20.7676 25.3024 20.7522 25.4193C20.7522 26.9609 20.7426 28.5035 20.7589 30.0451C20.7671 30.9102 21.0723 31.7513 21.6315 32.4501C22.1908 33.1489 22.9761 33.6704 23.877 33.9413C26.7793 34.8232 29.8082 32.8511 29.835 30.0609C29.8498 29.0218 29.4359 28.0157 28.6756 27.2417C27.9152 26.4678 26.8638 25.9825 25.7297 25.8821C25.6337 25.8743 25.5435 25.8821 25.4351 25.8821V26.9592C25.5541 27.0187 25.7009 27.0143 25.8371 27.0353C26.6759 27.1582 27.4305 27.5711 27.9442 28.1881C28.4578 28.8052 28.6911 29.579 28.5955 30.3488C28.4256 31.9009 26.88 33.0943 25.1262 33.0182C23.4433 32.9456 22.0349 31.6813 22.0042 30.1221C21.9639 28.1973 21.9946 26.2724 21.9956 24.3475C21.9986 24.3155 22.005 24.2838 22.0148 24.253C22.1414 24.1436 22.3083 24.1139 22.4724 24.0369C22.5578 24.1532 22.5233 24.2749 22.5233 24.3868C22.5233 26.2566 22.5233 28.1273 22.529 29.997C22.5329 31.0181 23.0433 31.7872 24.0324 32.2509C25.0513 32.7312 26.0655 32.6534 26.976 32.0217C27.9229 31.3646 28.2837 30.4616 28.0035 29.4056C27.7349 28.3959 26.9884 27.7747 25.8784 27.5262C25.7354 27.485 25.5829 27.4799 25.437 27.5113V28.5919C25.604 28.6181 25.7679 28.6588 25.9263 28.7135C26.2637 28.849 26.537 29.0898 26.6971 29.3926C26.8572 29.6955 26.8936 30.0404 26.7997 30.3655C26.7058 30.6906 26.4878 30.9745 26.1849 31.1661C25.882 31.3578 25.5141 31.4446 25.1473 31.4109C24.3711 31.3296 23.7705 30.7775 23.7667 30.0828C23.7552 27.9724 23.7667 25.862 23.7667 23.7508C23.7713 23.7224 23.779 23.6946 23.7897 23.6676C24.079 23.5809 24.3805 23.5326 24.6848 23.5241C26.5084 23.3747 28.3251 23.8709 29.7582 24.91C31.1914 25.949 32.1312 27.4512 32.3828 29.105C32.6343 30.7589 32.1783 32.4376 31.1094 33.7931C30.0404 35.1487 28.4404 36.0771 26.6411 36.3859C26.5452 36.4034 26.4176 36.3859 26.3696 36.5023H24.3548C24.2809 36.385 24.1409 36.4148 24.0334 36.4008C21.2002 35.9633 18.8429 33.8792 18.2999 31.2543C18.2836 31.1756 18.3056 31.0688 18.1665 31.0548V29.1518Z" fill="#D6283E"/>
<path d="M55.9116 33.5619V27.6455H57.6712V31.0675C57.8022 30.9649 57.9101 30.8401 57.9888 30.7C58.6671 29.7472 59.3473 28.7961 60.0161 27.838C60.0563 27.7667 60.1193 27.708 60.1966 27.6698C60.274 27.6316 60.3622 27.6155 60.4497 27.6237C60.939 27.6368 61.4303 27.6237 61.9445 27.6237V33.5287H60.1984V30.168L60.1235 30.1496C59.9614 30.3719 59.7954 30.5932 59.6361 30.8181C59.0451 31.6537 58.4522 32.4875 57.8708 33.3283C57.7566 33.4937 57.6367 33.5724 57.4131 33.5654C56.9277 33.5488 56.4345 33.5619 55.9116 33.5619Z" fill="#2E292B"/>
<path d="M73.9561 33.5618V27.6507H75.7108V31.049C75.8826 30.9764 75.9267 30.8574 75.9939 30.7638C76.677 29.7996 77.363 28.8371 78.0346 27.8747C78.1564 27.6997 78.2831 27.6122 78.5229 27.6253C79.0026 27.6454 79.4823 27.6314 79.9841 27.6314V33.5496H78.2572V30.1863C78.0912 30.1609 78.0758 30.2738 78.0288 30.3359C77.3246 31.3255 76.6185 32.3142 75.9277 33.3107C75.8791 33.3962 75.8032 33.4662 75.7099 33.5114C75.6167 33.5565 75.5106 33.5747 75.4057 33.5636C74.9337 33.5487 74.4569 33.5618 73.9561 33.5618Z" fill="#2E292B"/>
<path d="M49.6567 33.5665V27.6475H54.4328V29.0684H51.5104C51.4765 29.3564 51.4717 29.6466 51.496 29.9355C51.8222 29.9355 52.1311 29.9407 52.4391 29.9355C52.8589 29.9221 53.2782 29.9729 53.6796 30.0859C54.639 30.3677 55.0391 30.9889 54.9796 31.8595C54.9192 32.7467 54.3915 33.3075 53.4321 33.4667C52.1877 33.6741 50.928 33.5131 49.6567 33.5665ZM51.4979 32.3521C51.9219 32.3573 52.3259 32.4098 52.7211 32.3004C53.009 32.2208 53.1481 32.0213 53.1395 31.7247C53.1308 31.4281 52.9783 31.2452 52.6751 31.1831C52.2869 31.1174 51.8899 31.1059 51.4979 31.149V32.3521Z" fill="#2E292B"/>
<path d="M81.0889 27.6445H82.9022V29.9745L82.9713 29.9964L83.9307 28.7907C84.1974 28.4538 84.466 28.1187 84.727 27.7784C84.7554 27.7317 84.7972 27.6929 84.8479 27.6663C84.8986 27.6396 84.9563 27.626 85.0148 27.627C85.649 27.6323 86.2842 27.627 87.0037 27.627L84.5351 30.4995L87.0373 33.5215C86.8907 33.5573 86.7383 33.5685 86.5873 33.5548C86.0721 33.5548 85.556 33.546 85.0407 33.5609C84.9532 33.5685 84.8652 33.5526 84.7874 33.5151C84.7097 33.4776 84.6457 33.4203 84.6032 33.35C84.1235 32.6851 83.6285 32.0245 83.1382 31.3648C83.0901 31.2722 83.0143 31.194 82.9194 31.139V33.5373H81.0889V27.6445Z" fill="#2E292B"/>
<path d="M68.1172 27.6585C68.2758 27.6224 68.4402 27.6123 68.6027 27.6287C69.4287 27.6287 70.2567 27.6086 71.0818 27.6419C72.7724 27.7101 73.7116 29.1512 72.9863 30.5441C72.6534 31.1828 72.0605 31.4899 71.3111 31.5774C70.8727 31.6281 70.4294 31.6036 69.9507 31.6185V33.539H68.1172V27.6585ZM69.9535 30.2833C70.1589 30.2833 70.3479 30.2833 70.5369 30.2833C70.6208 30.2825 70.7044 30.2737 70.7863 30.2571C70.9424 30.2317 71.0832 30.1557 71.1828 30.0432C71.2824 29.9307 71.3341 29.7891 71.3284 29.6446C71.3459 29.5017 71.3059 29.3578 71.216 29.2397C71.126 29.1216 70.9921 29.0373 70.8391 29.0024C70.5513 28.9149 70.2558 28.949 69.9545 28.9665L69.9535 30.2833Z" fill="#2E292B"/>
<path d="M44.5509 27.9449V29.6493C44.0491 29.2031 43.5195 28.9004 42.8373 28.9686C42.4504 28.9996 42.0913 29.1646 41.8338 29.4297C41.2639 30.0177 41.213 31.0869 41.7282 31.6862C42.0851 32.1018 42.5716 32.2497 43.1261 32.2252C43.6807 32.2007 44.1191 31.9566 44.5653 31.583C44.5653 32.1595 44.5653 32.6583 44.5653 33.1579C44.5653 33.3145 44.4492 33.3609 44.3321 33.4142C43.4475 33.8228 42.5284 33.8412 41.6102 33.5533C40.3179 33.1491 39.5369 32.1394 39.4698 30.8288C39.4227 29.9118 39.652 29.071 40.3543 28.3789C41.3972 27.35 43.2844 27.1548 44.5509 27.9449Z" fill="#2E292B"/>
<path d="M91.8334 27.9389C91.8334 28.4901 91.8334 29.0413 91.8334 29.6013C90.6706 28.8235 89.8273 28.7605 89.1691 29.3904C88.5493 29.9845 88.4975 31.1036 89.0597 31.7195C89.6824 32.402 90.5728 32.3828 91.8334 31.6496V33.3023C91.6229 33.4375 91.3886 33.539 91.1407 33.6024C89.1586 34.1003 87.0305 33.1693 86.8003 31.0222C86.6938 30.0309 86.9039 29.1288 87.658 28.3764C88.6846 27.3501 90.6035 27.1523 91.8334 27.9389Z" fill="#2E292B"/>
<path d="M64.1146 29.0755H62.7148V27.6484H67.3594V29.065H65.9558V33.543H64.1146V29.0755Z" fill="#2E292B"/>
<path d="M38.3494 33.541H36.6628V29.0219H35.688V27.6509H38.3494V33.541Z" fill="#2E292B"/>
<path d="M47.0882 31.5961C46.8785 31.594 46.6741 31.5354 46.5008 31.4277C46.3276 31.3199 46.1931 31.1679 46.1144 30.9906C46.0356 30.8133 46.0162 30.6188 46.0584 30.4315C46.1006 30.2441 46.2027 30.0724 46.3517 29.9378C46.5007 29.8032 46.6901 29.7119 46.8959 29.6752C47.1017 29.6385 47.3148 29.6582 47.5084 29.7318C47.702 29.8053 47.8674 29.9294 47.9839 30.0885C48.1003 30.2476 48.1625 30.4345 48.1627 30.6257C48.1639 30.7543 48.1368 30.8817 48.0831 31.0006C48.0294 31.1194 47.9501 31.2272 47.8499 31.3177C47.7498 31.4081 47.6308 31.4793 47.4999 31.5272C47.3691 31.575 47.2291 31.5984 47.0882 31.5961Z" fill="#2E292B"/>
</g>
<rect x="16.5417" y="45.7082" width="76.9167" height="29.25" rx="3.79167" fill="url(#paint0_angular)" stroke="#E2C053" stroke-width="1.08333"/>
<path d="M41.902 53.0569C41.902 52.8445 41.8219 52.6755 41.6615 52.5497C41.5011 52.424 41.2832 52.3612 41.008 52.3612C40.7717 52.3612 40.5745 52.424 40.4162 52.5497C40.258 52.6733 40.1789 52.8337 40.1789 53.0309H39.3596C39.3596 52.773 39.4311 52.5432 39.5742 52.3417C39.7172 52.1401 39.9155 51.984 40.1691 51.8735C40.4227 51.7608 40.7023 51.7044 41.008 51.7044C41.5498 51.7044 41.9703 51.8226 42.2694 52.0588C42.5707 52.2951 42.7214 52.6256 42.7214 53.0504C42.7214 53.265 42.6563 53.4623 42.5263 53.6422C42.3962 53.8221 42.2142 53.964 41.9801 54.0681C42.2445 54.1591 42.4461 54.2978 42.5848 54.4842C42.7257 54.6685 42.7961 54.8982 42.7961 55.1735C42.7961 55.5983 42.6336 55.9365 42.3085 56.1879C41.9833 56.4371 41.5498 56.5618 41.008 56.5618C40.6742 56.5618 40.3718 56.5022 40.1009 56.383C39.8321 56.2637 39.6294 56.1012 39.4929 55.8953C39.3585 55.6894 39.2913 55.4531 39.2913 55.1865H40.1106C40.1106 55.3902 40.1951 55.5626 40.3642 55.7034C40.5333 55.8422 40.7479 55.9115 41.008 55.9115C41.2984 55.9115 41.5314 55.8432 41.707 55.7067C41.8847 55.5701 41.9736 55.3924 41.9736 55.1735C41.9736 54.9069 41.8955 54.714 41.7395 54.5948C41.5856 54.4734 41.3591 54.4127 41.06 54.4127H40.504V53.7625H41.0307C41.6116 53.7625 41.902 53.5273 41.902 53.0569ZM47.3381 54.2566C47.3381 54.7205 47.2579 55.128 47.0975 55.4791C46.9371 55.8281 46.7074 56.0968 46.4083 56.2854C46.1113 56.4718 45.7689 56.565 45.3809 56.565C44.9972 56.565 44.6548 56.4718 44.3535 56.2854C44.0544 56.0968 43.8224 55.8292 43.6577 55.4824C43.4952 55.1356 43.4128 54.7357 43.4106 54.2827V54.0161C43.4106 53.5544 43.4919 53.1469 43.6545 52.7936C43.8192 52.4403 44.05 52.1704 44.347 51.984C44.6461 51.7955 44.9886 51.7012 45.3744 51.7012C45.7602 51.7012 46.1016 51.7944 46.3985 51.9808C46.6976 52.165 46.9285 52.4316 47.091 52.7806C47.2536 53.1274 47.336 53.5316 47.3381 53.9933V54.2566ZM46.5156 54.0096C46.5156 53.485 46.4159 53.0829 46.2164 52.8033C46.0192 52.5237 45.7385 52.3839 45.3744 52.3839C45.0189 52.3839 44.7404 52.5237 44.5388 52.8033C44.3394 53.0808 44.2375 53.4742 44.2332 53.9835V54.2566C44.2332 54.7768 44.334 55.1789 44.5356 55.4629C44.7393 55.7468 45.0211 55.8888 45.3809 55.8888C45.745 55.8888 46.0246 55.75 46.2197 55.4726C46.4169 55.1952 46.5156 54.7898 46.5156 54.2566V54.0096ZM51.7761 51.7662V56.5H50.9567V52.4294H49.5067L49.4222 54.2599C49.3897 54.8321 49.3192 55.2765 49.2108 55.5929C49.1046 55.9072 48.9497 56.1369 48.7459 56.2822C48.5422 56.4274 48.2691 56.5 47.9266 56.5H47.7185V55.8432L47.8486 55.8335C48.0371 55.8162 48.1824 55.75 48.2842 55.6352C48.3883 55.5203 48.4663 55.3469 48.5183 55.115C48.5725 54.8809 48.6104 54.5373 48.6321 54.0843L48.7231 51.7662H51.7761ZM56.5456 54.2566C56.5456 54.7205 56.4654 55.128 56.305 55.4791C56.1446 55.8281 55.9149 56.0968 55.6158 56.2854C55.3188 56.4718 54.9764 56.565 54.5884 56.565C54.2047 56.565 53.8623 56.4718 53.561 56.2854C53.2619 56.0968 53.03 55.8292 52.8652 55.4824C52.7027 55.1356 52.6203 54.7357 52.6181 54.2827V54.0161C52.6181 53.5544 52.6994 53.1469 52.862 52.7936C53.0267 52.4403 53.2575 52.1704 53.5545 51.984C53.8536 51.7955 54.1961 51.7012 54.5819 51.7012C54.9677 51.7012 55.3091 51.7944 55.606 51.9808C55.9051 52.165 56.136 52.4316 56.2985 52.7806C56.4611 53.1274 56.5435 53.5316 56.5456 53.9933V54.2566ZM55.7231 54.0096C55.7231 53.485 55.6234 53.0829 55.424 52.8033C55.2267 52.5237 54.946 52.3839 54.5819 52.3839C54.2264 52.3839 53.9479 52.5237 53.7463 52.8033C53.5469 53.0808 53.445 53.4742 53.4407 53.9835V54.2566C53.4407 54.7768 53.5415 55.1789 53.7431 55.4629C53.9468 55.7468 54.2286 55.8888 54.5884 55.8888C54.9525 55.8888 55.2321 55.75 55.4272 55.4726C55.6244 55.1952 55.7231 54.7898 55.7231 54.2566V54.0096ZM60.5056 52.4294H59.0296V56.5H58.2135V52.4294H56.7505V51.7662H60.5056V52.4294ZM64.8168 54.2566C64.8168 54.7205 64.7366 55.128 64.5762 55.4791C64.4158 55.8281 64.186 56.0968 63.8869 56.2854C63.59 56.4718 63.2475 56.565 62.8595 56.565C62.4759 56.565 62.1334 56.4718 61.8321 56.2854C61.533 56.0968 61.3011 55.8292 61.1364 55.4824C60.9738 55.1356 60.8914 54.7357 60.8893 54.2827V54.0161C60.8893 53.5544 60.9706 53.1469 61.1331 52.7936C61.2979 52.4403 61.5287 52.1704 61.8256 51.984C62.1248 51.7955 62.4672 51.7012 62.853 51.7012C63.2388 51.7012 63.5802 51.7944 63.8772 51.9808C64.1763 52.165 64.4071 52.4316 64.5697 52.7806C64.7322 53.1274 64.8146 53.5316 64.8168 53.9933V54.2566ZM63.9942 54.0096C63.9942 53.485 63.8945 53.0829 63.6951 52.8033C63.4979 52.5237 63.2172 52.3839 62.853 52.3839C62.4976 52.3839 62.219 52.5237 62.0175 52.8033C61.8181 53.0808 61.7162 53.4742 61.7118 53.9835V54.2566C61.7118 54.7768 61.8126 55.1789 62.0142 55.4629C62.218 55.7468 62.4997 55.8888 62.8595 55.8888C63.2237 55.8888 63.5033 55.75 63.6984 55.4726C63.8956 55.1952 63.9942 54.7898 63.9942 54.2566V54.0096ZM68.5362 51.7662H69.3588V56.5H68.5362V53.1285L66.4587 56.5H65.6361V51.7662H66.4587V55.141L68.5362 51.7662ZM68.5622 50.56C68.5622 50.8331 68.4668 51.0542 68.2761 51.2232C68.0854 51.3923 67.8307 51.4768 67.5121 51.4768C67.1934 51.4768 66.9388 51.3923 66.748 51.2232C66.5573 51.0542 66.4619 50.8331 66.4619 50.56H67.0536C67.0536 50.703 67.0937 50.8147 67.1739 50.8949C67.2563 50.9729 67.369 51.0119 67.5121 51.0119C67.6551 51.0119 67.7667 50.9729 67.8469 50.8949C67.9271 50.8147 67.9672 50.703 67.9672 50.56H68.5622ZM27.1934 62.3014C27.1564 62.6942 27.0114 63.001 26.7585 63.2218C26.5056 63.441 26.1693 63.5506 25.7495 63.5506C25.4562 63.5506 25.1974 63.4815 24.9732 63.3432C24.7507 63.2033 24.5787 63.0052 24.4573 62.749C24.336 62.4927 24.2727 62.1952 24.2677 61.8563V61.5124C24.2677 61.1651 24.3292 60.8592 24.4523 60.5945C24.5754 60.3298 24.7515 60.1258 24.9808 59.9825C25.2118 59.8392 25.4781 59.7676 25.7799 59.7676C26.1862 59.7676 26.5132 59.878 26.761 60.0988C27.0088 60.3197 27.153 60.6316 27.1934 61.0345H26.5562C26.5259 60.7698 26.4483 60.5793 26.3236 60.463C26.2005 60.345 26.0193 60.286 25.7799 60.286C25.5017 60.286 25.2876 60.388 25.1376 60.5919C24.9892 60.7942 24.9134 61.0918 24.91 61.4846V61.8108C24.91 62.2087 24.9808 62.5121 25.1224 62.7211C25.2657 62.9302 25.4747 63.0347 25.7495 63.0347C26.0007 63.0347 26.1895 62.9782 26.316 62.8653C26.4424 62.7523 26.5225 62.5644 26.5562 62.3014H27.1934ZM29.9194 61.8563H28.4072V62.9892H30.1748V63.5H27.7675V59.8182H30.1571V60.334H28.4072V61.3506H29.9194V61.8563ZM31.3355 62.132V63.5H30.6958V59.8182H32.1043C32.5156 59.8182 32.8418 59.9252 33.0829 60.1393C33.3256 60.3534 33.447 60.6366 33.447 60.989C33.447 61.3497 33.3282 61.6304 33.0905 61.831C32.8545 62.0316 32.5232 62.132 32.0967 62.132H31.3355ZM31.3355 61.6186H32.1043C32.3318 61.6186 32.5055 61.5655 32.6252 61.4593C32.7449 61.3514 32.8047 61.1963 32.8047 60.994C32.8047 60.7951 32.744 60.6366 32.6227 60.5186C32.5013 60.3989 32.3344 60.3374 32.122 60.334H31.3355V61.6186ZM36.6686 60.334H35.5206V63.5H34.8859V60.334H33.7479V59.8182H36.6686V60.334ZM39.4098 59.8182H40.0496V63.5H39.4098V60.8777L37.7939 63.5H37.1542V59.8182H37.7939V62.443L39.4098 59.8182ZM42.8236 60.1671H42.8792C43.1624 60.1671 43.4195 60.2312 43.6505 60.3593C43.8831 60.4857 44.0635 60.6644 44.1916 60.8954C44.3215 61.1264 44.3864 61.386 44.3864 61.6742C44.3864 61.9608 44.3215 62.2188 44.1916 62.448C44.0635 62.6756 43.8848 62.8526 43.6556 62.9791C43.428 63.1055 43.1726 63.1696 42.8893 63.1713H42.8236V63.6517H42.2091V63.1713H42.1484C41.8635 63.1713 41.6047 63.108 41.3721 62.9816C41.1395 62.8535 40.9591 62.6756 40.8309 62.448C40.7045 62.2205 40.6413 61.9642 40.6413 61.6793C40.6413 61.391 40.7054 61.1314 40.8335 60.9005C40.9616 60.6695 41.1411 60.49 41.3721 60.3618C41.6031 60.232 41.8618 60.1671 42.1484 60.1671H42.2091V59.6664H42.8236V60.1671ZM42.1484 60.6805C41.8652 60.6805 41.6435 60.769 41.4834 60.946C41.3249 61.123 41.2457 61.3674 41.2457 61.6793C41.2457 61.9828 41.3249 62.2221 41.4834 62.3975C41.6418 62.5711 41.866 62.6579 42.156 62.6579H42.2091V60.6805H42.1484ZM42.8236 60.6805V62.6579H42.8843C43.1675 62.6579 43.3875 62.5694 43.5443 62.3924C43.7028 62.2154 43.782 61.976 43.782 61.6742C43.782 61.3657 43.7028 61.123 43.5443 60.946C43.3875 60.769 43.165 60.6805 42.8767 60.6805H42.8236ZM47.1983 59.8182H47.8381V63.5H47.1983V60.8777L45.5825 63.5H44.9427V59.8182H45.5825V62.443L47.1983 59.8182ZM48.5992 59.8182H49.239V62.9892H50.8599V59.8182H51.4997V62.9841H51.9448L51.8942 64.3876H51.3075V63.5H48.5992V59.8182ZM54.7289 59.8182H55.3687V63.5H54.7289V60.8777L53.113 63.5H52.4733V59.8182H53.113V62.443L54.7289 59.8182ZM56.7747 62.132V63.5H56.1349V59.8182H57.5434C57.9547 59.8182 58.2809 59.9252 58.522 60.1393C58.7648 60.3534 58.8862 60.6366 58.8862 60.989C58.8862 61.3497 58.7673 61.6304 58.5296 61.831C58.2936 62.0316 57.9623 62.132 57.5358 62.132H56.7747ZM56.7747 61.6186H57.5434C57.771 61.6186 57.9446 61.5655 58.0643 61.4593C58.184 61.3514 58.2439 61.1963 58.2439 60.994C58.2439 60.7951 58.1832 60.6366 58.0618 60.5186C57.9404 60.3989 57.7735 60.3374 57.5611 60.334H56.7747V61.6186ZM62.3859 61.7552C62.3859 62.1159 62.3236 62.4329 62.1988 62.706C62.0741 62.9774 61.8954 63.1864 61.6627 63.3331C61.4318 63.4781 61.1654 63.5506 60.8636 63.5506C60.5652 63.5506 60.2989 63.4781 60.0646 63.3331C59.8319 63.1864 59.6515 62.9782 59.5234 62.7085C59.397 62.4388 59.3329 62.1277 59.3312 61.7754V61.568C59.3312 61.209 59.3944 60.892 59.5209 60.6172C59.649 60.3424 59.8285 60.1326 60.0595 59.9876C60.2921 59.8409 60.5585 59.7676 60.8586 59.7676C61.1587 59.7676 61.4242 59.8401 61.6551 59.985C61.8878 60.1283 62.0673 60.3357 62.1938 60.6071C62.3202 60.8769 62.3843 61.1913 62.3859 61.5503V61.7552ZM61.7462 61.563C61.7462 61.155 61.6686 60.8423 61.5135 60.6248C61.3601 60.4073 61.1418 60.2986 60.8586 60.2986C60.5821 60.2986 60.3655 60.4073 60.2087 60.6248C60.0536 60.8406 59.9744 61.1466 59.971 61.5428V61.7552C59.971 62.1598 60.0494 62.4725 60.2062 62.6933C60.3646 62.9142 60.5838 63.0246 60.8636 63.0246C61.1469 63.0246 61.3643 62.9167 61.5161 62.7009C61.6695 62.4851 61.7462 62.1699 61.7462 61.7552V61.563ZM63.0232 63.5V59.8182H64.285C64.7014 59.8182 65.0184 59.9016 65.2358 60.0685C65.4533 60.2354 65.562 60.4841 65.562 60.8145C65.562 60.9831 65.5165 61.1348 65.4255 61.2697C65.3344 61.4045 65.2013 61.509 65.0259 61.5832C65.2249 61.6372 65.3783 61.7392 65.4862 61.8892C65.5958 62.0375 65.6505 62.2162 65.6505 62.4253C65.6505 62.7709 65.5393 63.0364 65.3167 63.2218C65.0959 63.4073 64.779 63.5 64.3659 63.5H63.0232ZM63.663 61.8386V62.9892H64.3735C64.5741 62.9892 64.7309 62.9395 64.8439 62.84C64.9568 62.7405 65.0133 62.6023 65.0133 62.4253C65.0133 62.0426 64.8177 61.847 64.4266 61.8386H63.663ZM63.663 61.3683H64.2901C64.489 61.3683 64.6441 61.3236 64.7554 61.2342C64.8683 61.1432 64.9248 61.0151 64.9248 60.8499C64.9248 60.6678 64.8725 60.5363 64.768 60.4554C64.6652 60.3745 64.5042 60.334 64.285 60.334H63.663V61.3683ZM68.3512 62.6428H66.925L66.6266 63.5H65.9616L67.3524 59.8182H67.9264L69.3197 63.5H68.6522L68.3512 62.6428ZM67.1046 62.1269H68.1717L67.6381 60.5995L67.1046 62.1269ZM72.6627 63.5H72.0255V61.8639H70.3793V63.5H69.7395V59.8182H70.3793V61.3506H72.0255V59.8182H72.6627V63.5ZM76.3446 63.5H75.7073V61.8639H74.0611V63.5H73.4214V59.8182H74.0611V61.3506H75.7073V59.8182H76.3446V63.5ZM77.7607 61.2267H78.5142C78.784 61.2267 79.0192 61.273 79.2198 61.3657C79.4204 61.4585 79.5729 61.59 79.6775 61.7602C79.782 61.9305 79.8343 62.1277 79.8343 62.352C79.8343 62.6959 79.7171 62.9723 79.4828 63.1814C79.2501 63.3904 78.9323 63.4966 78.5294 63.5H77.1209V59.8182H77.7607V61.2267ZM80.8356 63.5H80.1984V59.8182H80.8356V63.5ZM77.7607 61.74V62.9892H78.5117C78.7275 62.9892 78.8952 62.931 79.0149 62.8147C79.1363 62.6967 79.197 62.5408 79.197 62.3469C79.197 62.1615 79.138 62.0148 79.02 61.9069C78.902 61.799 78.7385 61.7434 78.5294 61.74H77.7607ZM83.8752 59.8182H84.515V63.5H83.8752V60.8777L82.2593 63.5H81.6195V59.8182H82.2593V62.443L83.8752 59.8182ZM83.8954 58.88C83.8954 59.0924 83.8212 59.2644 83.6729 59.3959C83.5245 59.5273 83.3264 59.5931 83.0786 59.5931C82.8308 59.5931 82.6327 59.5273 82.4844 59.3959C82.336 59.2644 82.2618 59.0924 82.2618 58.88H82.7221C82.7221 58.9913 82.7533 59.0781 82.8156 59.1405C82.8797 59.2011 82.9674 59.2315 83.0786 59.2315C83.1899 59.2315 83.2767 59.2011 83.3391 59.1405C83.4015 59.0781 83.4327 58.9913 83.4327 58.88H83.8954ZM45.9871 70.5H45.3498V67.334H43.7289V70.5H43.0916V66.8182H45.9871V70.5ZM48.8218 69.6428H47.3956L47.0972 70.5H46.4321L47.8229 66.8182H48.3969L49.7903 70.5H49.1227L48.8218 69.6428ZM47.5751 69.1269H48.6422L48.1087 67.5995L47.5751 69.1269ZM50.8498 69.132V70.5H50.2101V66.8182H51.6186C52.0299 66.8182 52.3561 66.9252 52.5972 67.1393C52.8399 67.3534 52.9613 67.6366 52.9613 67.989C52.9613 68.3497 52.8425 68.6304 52.6048 68.831C52.3688 69.0316 52.0375 69.132 51.611 69.132H50.8498ZM50.8498 68.6186H51.6186C51.8461 68.6186 52.0198 68.5655 52.1395 68.4593C52.2592 68.3514 52.319 68.1963 52.319 67.994C52.319 67.7951 52.2583 67.6366 52.137 67.5186C52.0156 67.3989 51.8487 67.3374 51.6363 67.334H50.8498V68.6186ZM56.1829 67.334H55.0349V70.5H54.4002V67.334H53.2622V66.8182H56.1829V67.334ZM59.5917 70.5H58.9544V68.8639H57.3082V70.5H56.6685V66.8182H57.3082V68.3506H58.9544V66.8182H59.5917V70.5ZM62.5023 68.8563H60.9901V69.9892H62.7577V70.5H60.3503V66.8182H62.74V67.334H60.9901V68.3506H62.5023V68.8563ZM63.9184 69.132V70.5H63.2786V66.8182H64.6871C65.0984 66.8182 65.4246 66.9252 65.6657 67.1393C65.9085 67.3534 66.0299 67.6366 66.0299 67.989C66.0299 68.3497 65.911 68.6304 65.6733 68.831C65.4373 69.0316 65.106 69.132 64.6795 69.132H63.9184ZM63.9184 68.6186H64.6871C64.9147 68.6186 65.0883 68.5655 65.208 68.4593C65.3277 68.3514 65.3876 68.1963 65.3876 67.994C65.3876 67.7951 65.3269 67.6366 65.2055 67.5186C65.0841 67.3989 64.9172 67.3374 64.7048 67.334H63.9184V68.6186Z" fill="#9B4D00"/>
<defs>
<radialGradient id="paint0_angular" cx="0" cy="0" r="1" gradientUnits="userSpaceOnUse" gradientTransform="translate(55 60.3332) rotate(90) scale(15.1667 39)">
<stop offset="0.025926" stop-color="#EEC119"/>
<stop offset="0.223958" stop-color="#FFEE78"/>
<stop offset="0.427083" stop-color="#EFC31D"/>
<stop offset="0.619792" stop-color="#FAC916"/>
<stop offset="0.802083" stop-color="#FFE96F"/>
<stop offset="0.919246" stop-color="#FFE96F"/>
<stop offset="1" stop-color="#FCD033"/>
</radialGradient>
<clipPath id="clip0">
<rect width="73.6667" height="13" fill="white" transform="translate(18.1665 23.5)"/>
</clipPath>
</defs>
</svg>
