<svg width="110" height="120" viewBox="0 0 110 120" fill="none" xmlns="http://www.w3.org/2000/svg">
<path d="M107 3H3V83.5L56 115.5L107 83.5V3Z" fill="white" stroke="#FEDB4B" stroke-width="6"/>
<path d="M13.5 11.5V77.3579L57.2605 103.5L97.5 74.8443V11.5H13.5Z" fill="white"/>
<path d="M19.89 18.3H33.15V21.16H28.028V36.5H25.038V21.16H19.89V18.3ZM43.8411 34.862C42.5237 36.1793 40.9031 36.838 38.9791 36.838C37.0551 36.838 35.4344 36.1793 34.1171 34.862C32.7824 33.5273 32.1151 31.9067 32.1151 30C32.1151 28.0933 32.7824 26.4727 34.1171 25.138C35.4344 23.8207 37.0551 23.162 38.9791 23.162C40.9031 23.162 42.5237 23.8207 43.8411 25.138C45.1757 26.4727 45.8431 28.0933 45.8431 30C45.8431 31.9067 45.1757 33.5273 43.8411 34.862ZM34.9231 30C34.9231 31.1787 35.3131 32.158 36.0931 32.938C36.8731 33.718 37.8351 34.108 38.9791 34.108C40.1231 34.108 41.0851 33.718 41.8651 32.938C42.6451 32.158 43.0351 31.1787 43.0351 30C43.0351 28.8213 42.6451 27.842 41.8651 27.062C41.0851 26.282 40.1231 25.892 38.9791 25.892C37.8351 25.892 36.8731 26.282 36.0931 27.062C35.3131 27.842 34.9231 28.8213 34.9231 30ZM48.3821 23.5H59.9521V36.5H57.1441V26.152H51.1901V36.5H48.3821V23.5ZM73.0123 29.948H63.3923V27.244H73.0123V29.948ZM87.2022 20.848L83.5102 25.736C84.8622 26.048 85.9368 26.672 86.7342 27.608C87.5488 28.5267 87.9562 29.6533 87.9562 30.988C87.9562 32.808 87.3408 34.238 86.1102 35.278C84.8968 36.318 83.3888 36.838 81.5862 36.838C80.1648 36.838 78.9082 36.5173 77.8162 35.876C76.7242 35.2173 75.9442 34.2813 75.4762 33.068L78.0242 31.586C78.5615 33.146 79.7488 33.926 81.5862 33.926C82.6262 33.926 83.4495 33.666 84.0562 33.146C84.6628 32.6087 84.9662 31.8893 84.9662 30.988C84.9662 30.0867 84.6628 29.376 84.0562 28.856C83.4495 28.336 82.6262 28.076 81.5862 28.076H80.9102L79.7142 26.282L83.6402 21.108H76.0222V18.3H87.2022V20.848Z" fill="#0B0B0B"/>
<path d="M35.5835 62.0239H34.8584V64.5H33.8594V58.6885H34.8584V61.1484H35.5083L37.4634 58.6885H38.6665L36.3677 61.4814L38.8599 64.5H37.5977L35.5835 62.0239ZM44.623 61.6587C44.623 62.5431 44.4207 63.2557 44.0161 63.7964C43.6115 64.3371 43.0636 64.6074 42.3726 64.6074C41.6672 64.6074 41.1121 64.3836 40.7075 63.936V66.7344H39.7139V58.6885H40.6216L40.6699 59.333C41.0745 58.8317 41.6367 58.5811 42.3564 58.5811C43.0547 58.5811 43.6061 58.8442 44.0107 59.3706C44.4189 59.897 44.623 60.6292 44.623 61.5674V61.6587ZM43.6294 61.5459C43.6294 60.8906 43.4897 60.3732 43.2104 59.9937C42.9312 59.6141 42.548 59.4243 42.061 59.4243C41.4595 59.4243 41.0083 59.6911 40.7075 60.2246V63.0015C41.0047 63.5314 41.4595 63.7964 42.0718 63.7964C42.548 63.7964 42.9258 63.6084 43.2051 63.2324C43.488 62.8529 43.6294 62.2907 43.6294 61.5459ZM47.7275 63.0444L49.0811 58.6885H50.1445L47.8081 65.397C47.4465 66.3638 46.8717 66.8472 46.084 66.8472L45.896 66.8311L45.5254 66.7612V65.9556L45.7939 65.9771C46.1305 65.9771 46.3919 65.909 46.5781 65.7729C46.7679 65.6369 46.9237 65.388 47.0454 65.0264L47.2656 64.4355L45.1924 58.6885H46.2773L47.7275 63.0444ZM55.7896 64.5H54.7959V59.5103H52.1211V64.5H51.1221V58.6885H55.7896V64.5ZM62.1328 64.5H61.1392V62.0186H58.4697V64.5H57.4707V58.6885H58.4697V61.2075H61.1392V58.6885H62.1328V64.5ZM64.8184 60.6919H66.3276C66.9865 60.6991 67.5075 60.8709 67.8906 61.2075C68.2738 61.5441 68.4653 62.0007 68.4653 62.5771C68.4653 63.1572 68.2684 63.6227 67.8745 63.9736C67.4806 64.3245 66.9507 64.5 66.2847 64.5H63.8247V58.6885H64.8184V60.6919ZM70.5386 64.5H69.5396V58.6885H70.5386V64.5ZM64.8184 61.5029V63.689H66.2954C66.6678 63.689 66.9561 63.5941 67.1602 63.4043C67.3643 63.2109 67.4663 62.9478 67.4663 62.6147C67.4663 62.2925 67.366 62.0293 67.1655 61.8252C66.9686 61.6175 66.6911 61.5101 66.333 61.5029H64.8184ZM74.2231 60.8101L75.5122 58.6885H76.6724L74.771 61.562L76.7314 64.5H75.582L74.2393 62.3247L72.8965 64.5H71.7417L73.7021 61.562L71.8008 58.6885H72.9502L74.2231 60.8101ZM21.5918 75.6587C21.5918 76.5431 21.3895 77.2557 20.9849 77.7964C20.5802 78.3371 20.0324 78.6074 19.3413 78.6074C18.6359 78.6074 18.0809 78.3836 17.6763 77.936V80.7344H16.6826V72.6885H17.5903L17.6387 73.333C18.0433 72.8317 18.6055 72.5811 19.3252 72.5811C20.0234 72.5811 20.5749 72.8442 20.9795 73.3706C21.3877 73.897 21.5918 74.6292 21.5918 75.5674V75.6587ZM20.5981 75.5459C20.5981 74.8906 20.4585 74.3732 20.1792 73.9937C19.8999 73.6141 19.5168 73.4243 19.0298 73.4243C18.4282 73.4243 17.9771 73.6911 17.6763 74.2246V77.0015C17.9735 77.5314 18.4282 77.7964 19.0405 77.7964C19.5168 77.7964 19.8945 77.6084 20.1738 77.2324C20.4567 76.8529 20.5981 76.2907 20.5981 75.5459ZM26.4473 78.5C26.39 78.3854 26.3434 78.1813 26.3076 77.8877C25.8457 78.3675 25.2943 78.6074 24.6533 78.6074C24.0804 78.6074 23.6095 78.4463 23.2407 78.124C22.8755 77.7982 22.6929 77.3864 22.6929 76.8887C22.6929 76.2835 22.922 75.8145 23.3804 75.4814C23.8423 75.1449 24.4904 74.9766 25.3247 74.9766H26.2915V74.52C26.2915 74.1727 26.1877 73.897 25.98 73.6929C25.7723 73.4852 25.4661 73.3813 25.0615 73.3813C24.707 73.3813 24.4098 73.4709 24.1699 73.6499C23.93 73.8289 23.8101 74.0456 23.8101 74.2998H22.811C22.811 74.0098 22.9131 73.7305 23.1172 73.4619C23.3249 73.1898 23.6042 72.9749 23.9551 72.8174C24.3096 72.6598 24.6981 72.5811 25.1206 72.5811C25.7902 72.5811 26.3148 72.7493 26.6943 73.0859C27.0739 73.4189 27.2708 73.8791 27.2852 74.4663V77.1411C27.2852 77.6746 27.3532 78.099 27.4893 78.4141V78.5H26.4473ZM24.7983 77.7427C25.1099 77.7427 25.4053 77.6621 25.6846 77.501C25.9639 77.3398 26.1662 77.1304 26.2915 76.8726V75.6802H25.5127C24.2952 75.6802 23.6865 76.0365 23.6865 76.749C23.6865 77.0605 23.7904 77.304 23.998 77.4795C24.2057 77.6549 24.4725 77.7427 24.7983 77.7427ZM32.0386 74.2783C32.0386 74.0062 31.9347 73.7913 31.7271 73.6338C31.5194 73.4727 31.2347 73.3921 30.873 73.3921C30.5221 73.3921 30.2285 73.4834 29.9922 73.666C29.7594 73.8486 29.6431 74.0635 29.6431 74.3105H28.6548C28.6548 73.8057 28.866 73.3921 29.2886 73.0698C29.7111 72.7476 30.2393 72.5864 30.873 72.5864C31.5534 72.5864 32.0833 72.7332 32.4629 73.0269C32.8424 73.3169 33.0322 73.7323 33.0322 74.2729C33.0322 74.5343 32.9535 74.7743 32.7959 74.9927C32.6383 75.2111 32.4146 75.3848 32.1245 75.5137C32.8013 75.7428 33.1396 76.194 33.1396 76.8672C33.1396 77.4007 32.9338 77.8232 32.522 78.1348C32.1102 78.4463 31.5605 78.6021 30.873 78.6021C30.2035 78.6021 29.6502 78.4391 29.2134 78.1133C28.7801 77.7839 28.5635 77.3398 28.5635 76.7812H29.5518C29.5518 77.0641 29.6771 77.3076 29.9277 77.5117C30.182 77.7122 30.4971 77.8125 30.873 77.8125C31.2526 77.8125 31.5588 77.7248 31.7915 77.5493C32.0243 77.3739 32.1406 77.1465 32.1406 76.8672C32.1406 76.5413 32.0422 76.3086 31.8452 76.1689C31.6519 76.0257 31.3493 75.9541 30.9375 75.9541H29.9438V75.1162H31.0234C31.7002 75.0983 32.0386 74.819 32.0386 74.2783ZM39.3379 75.6587C39.3379 76.5431 39.1356 77.2557 38.731 77.7964C38.3263 78.3371 37.7785 78.6074 37.0874 78.6074C36.382 78.6074 35.827 78.3836 35.4224 77.936V80.7344H34.4287V72.6885H35.3364L35.3848 73.333C35.7894 72.8317 36.3516 72.5811 37.0713 72.5811C37.7695 72.5811 38.321 72.8442 38.7256 73.3706C39.1338 73.897 39.3379 74.6292 39.3379 75.5674V75.6587ZM38.3442 75.5459C38.3442 74.8906 38.2046 74.3732 37.9253 73.9937C37.646 73.6141 37.2629 73.4243 36.7759 73.4243C36.1743 73.4243 35.7231 73.6911 35.4224 74.2246V77.0015C35.7196 77.5314 36.1743 77.7964 36.7866 77.7964C37.2629 77.7964 37.6406 77.6084 37.9199 77.2324C38.2028 76.8529 38.3442 76.2907 38.3442 75.5459ZM44.1934 78.5C44.1361 78.3854 44.0895 78.1813 44.0537 77.8877C43.5918 78.3675 43.0404 78.6074 42.3994 78.6074C41.8265 78.6074 41.3556 78.4463 40.9868 78.124C40.6216 77.7982 40.439 77.3864 40.439 76.8887C40.439 76.2835 40.6681 75.8145 41.1265 75.4814C41.5884 75.1449 42.2365 74.9766 43.0708 74.9766H44.0376V74.52C44.0376 74.1727 43.9338 73.897 43.7261 73.6929C43.5184 73.4852 43.2122 73.3813 42.8076 73.3813C42.4531 73.3813 42.1559 73.4709 41.916 73.6499C41.6761 73.8289 41.5562 74.0456 41.5562 74.2998H40.5571C40.5571 74.0098 40.6592 73.7305 40.8633 73.4619C41.071 73.1898 41.3503 72.9749 41.7012 72.8174C42.0557 72.6598 42.4442 72.5811 42.8667 72.5811C43.5363 72.5811 44.0609 72.7493 44.4404 73.0859C44.82 73.4189 45.0169 73.8791 45.0312 74.4663V77.1411C45.0312 77.6746 45.0993 78.099 45.2354 78.4141V78.5H44.1934ZM42.5444 77.7427C42.856 77.7427 43.1514 77.6621 43.4307 77.501C43.71 77.3398 43.9123 77.1304 44.0376 76.8726V75.6802H43.2588C42.0413 75.6802 41.4326 76.0365 41.4326 76.749C41.4326 77.0605 41.5365 77.304 41.7441 77.4795C41.9518 77.6549 42.2186 77.7427 42.5444 77.7427ZM49.1401 73.0215C49.8706 73.0215 50.4543 73.2668 50.8911 73.7573C51.3315 74.2443 51.5518 74.887 51.5518 75.6855V75.7769C51.5518 76.3247 51.4461 76.8153 51.2349 77.2485C51.0236 77.6782 50.7192 78.013 50.3218 78.2529C49.9279 78.4893 49.4731 78.6074 48.9575 78.6074C48.1769 78.6074 47.5485 78.3478 47.0723 77.8286C46.596 77.3058 46.3579 76.6058 46.3579 75.7285V75.2451C46.3579 74.0241 46.5835 73.0537 47.0347 72.334C47.4894 71.6143 48.159 71.1756 49.0435 71.0181C49.5448 70.9285 49.8831 70.8193 50.0586 70.6904C50.234 70.5615 50.3218 70.3843 50.3218 70.1587H51.1382C51.1382 70.6063 51.0361 70.9554 50.832 71.2061C50.6315 71.4567 50.3092 71.634 49.8652 71.7378L49.124 71.9043C48.5332 72.0439 48.0892 72.2803 47.792 72.6133C47.4984 72.9427 47.3068 73.3831 47.2173 73.9346C47.7437 73.3258 48.3846 73.0215 49.1401 73.0215ZM48.9468 73.8379C48.4598 73.8379 48.0731 74.0026 47.7866 74.332C47.5002 74.6579 47.3569 75.1108 47.3569 75.6909V75.7769C47.3569 76.3999 47.5002 76.894 47.7866 77.2593C48.0767 77.6209 48.467 77.8018 48.9575 77.8018C49.4517 77.8018 49.842 77.6191 50.1284 77.2539C50.4149 76.8887 50.5581 76.3551 50.5581 75.6533C50.5581 75.1055 50.4131 74.6668 50.123 74.3374C49.8366 74.0044 49.4445 73.8379 48.9468 73.8379ZM52.4058 75.5405C52.4058 74.9712 52.5168 74.4591 52.7388 74.0044C52.9644 73.5496 53.2759 73.1987 53.6733 72.9517C54.0744 72.7046 54.5309 72.5811 55.043 72.5811C55.8343 72.5811 56.4735 72.855 56.9604 73.4028C57.451 73.9507 57.6963 74.6794 57.6963 75.5889V75.6587C57.6963 76.2244 57.5871 76.7329 57.3687 77.1841C57.1538 77.6317 56.8441 77.9808 56.4395 78.2314C56.0384 78.4821 55.5765 78.6074 55.0537 78.6074C54.266 78.6074 53.6268 78.3335 53.1362 77.7856C52.6493 77.2378 52.4058 76.5127 52.4058 75.6104V75.5405ZM53.4048 75.6587C53.4048 76.3032 53.5534 76.8206 53.8506 77.2109C54.1514 77.6012 54.5524 77.7964 55.0537 77.7964C55.5586 77.7964 55.9596 77.5994 56.2568 77.2056C56.554 76.8081 56.7026 76.2531 56.7026 75.5405C56.7026 74.9032 56.5505 74.3875 56.2461 73.9937C55.9453 73.5962 55.5443 73.3975 55.043 73.3975C54.5524 73.3975 54.1567 73.5926 53.856 73.9829C53.5552 74.3732 53.4048 74.9318 53.4048 75.6587ZM63.1426 73.4941H61.1929V78.5H60.1992V73.4941H58.2871V72.6885H63.1426V73.4941ZM68.4976 78.5H67.4985V76.3945C67.0617 76.5091 66.6141 76.5664 66.1558 76.5664C65.4289 76.5664 64.8739 76.3802 64.4907 76.0078C64.1112 75.6354 63.9178 75.1055 63.9106 74.418V72.6831H64.9043V74.4502C64.9222 75.3167 65.3394 75.75 66.1558 75.75C66.6141 75.75 67.0617 75.6927 67.4985 75.5781V72.6885H68.4976V78.5ZM73.8525 72.6885H74.8462V78.5H73.8525V74.2622L71.1724 78.5H70.1787V72.6885H71.1724V76.9316L73.8525 72.6885ZM78.2515 76.0239H77.5264V78.5H76.5273V72.6885H77.5264V75.1484H78.1763L80.1313 72.6885H81.3345L79.0356 75.4814L81.5278 78.5H80.2656L78.2515 76.0239ZM82.0005 75.5405C82.0005 74.9712 82.1115 74.4591 82.3335 74.0044C82.5591 73.5496 82.8706 73.1987 83.2681 72.9517C83.6691 72.7046 84.1257 72.5811 84.6377 72.5811C85.429 72.5811 86.0682 72.855 86.5552 73.4028C87.0457 73.9507 87.291 74.6794 87.291 75.5889V75.6587C87.291 76.2244 87.1818 76.7329 86.9634 77.1841C86.7485 77.6317 86.4388 77.9808 86.0342 78.2314C85.6331 78.4821 85.1712 78.6074 84.6484 78.6074C83.8607 78.6074 83.2215 78.3335 82.731 77.7856C82.244 77.2378 82.0005 76.5127 82.0005 75.6104V75.5405ZM82.9995 75.6587C82.9995 76.3032 83.1481 76.8206 83.4453 77.2109C83.7461 77.6012 84.1471 77.7964 84.6484 77.7964C85.1533 77.7964 85.5544 77.5994 85.8516 77.2056C86.1488 76.8081 86.2974 76.2531 86.2974 75.5405C86.2974 74.9032 86.1452 74.3875 85.8408 73.9937C85.54 73.5962 85.139 73.3975 84.6377 73.3975C84.1471 73.3975 83.7515 73.5926 83.4507 73.9829C83.1499 74.3732 82.9995 74.9318 82.9995 75.6587ZM88.6284 78.5V72.6885H90.895C91.6685 72.6885 92.2611 72.8245 92.6729 73.0967C93.0882 73.3652 93.2959 73.7609 93.2959 74.2837C93.2959 74.5522 93.2153 74.7957 93.0542 75.0142C92.8931 75.229 92.6549 75.3937 92.3398 75.5083C92.6908 75.5907 92.9718 75.7518 93.1831 75.9917C93.3979 76.2316 93.5054 76.5181 93.5054 76.8511C93.5054 77.3846 93.3084 77.7928 92.9146 78.0757C92.5243 78.3586 91.971 78.5 91.2549 78.5H88.6284ZM89.6221 75.9487V77.6997H91.2656C91.681 77.6997 91.9907 77.6227 92.1948 77.4688C92.4025 77.3148 92.5063 77.0981 92.5063 76.8188C92.5063 76.2388 92.0802 75.9487 91.228 75.9487H89.6221ZM89.6221 75.1538H90.9058C91.8368 75.1538 92.3022 74.8817 92.3022 74.3374C92.3022 73.7931 91.8618 73.512 90.981 73.4941H89.6221V75.1538Z" fill="#0B0B0B"/>
<line x1="26.5" y1="48" x2="84.5" y2="48" stroke="#DADADA"/>
</svg>
