<svg width="110" height="120" viewBox="0 0 110 120" fill="none" xmlns="http://www.w3.org/2000/svg">
<path d="M107 3H3V83.5L56 115.5L107 83.5V3Z" fill="white" stroke="#FEDB4B" stroke-width="6"/>
<path d="M14.5 13.5V79.3579L58.2605 105.5L98.5 76.8443V13.5H14.5Z" fill="white"/>
<path d="M20.89 20.3H34.15V23.16H29.028V38.5H26.038V23.16H20.89V20.3ZM44.8411 36.862C43.5237 38.1793 41.9031 38.838 39.9791 38.838C38.0551 38.838 36.4344 38.1793 35.1171 36.862C33.7824 35.5273 33.1151 33.9067 33.1151 32C33.1151 30.0933 33.7824 28.4727 35.1171 27.138C36.4344 25.8207 38.0551 25.162 39.9791 25.162C41.9031 25.162 43.5237 25.8207 44.8411 27.138C46.1757 28.4727 46.8431 30.0933 46.8431 32C46.8431 33.9067 46.1757 35.5273 44.8411 36.862ZM35.9231 32C35.9231 33.1787 36.3131 34.158 37.0931 34.938C37.8731 35.718 38.8351 36.108 39.9791 36.108C41.1231 36.108 42.0851 35.718 42.8651 34.938C43.6451 34.158 44.0351 33.1787 44.0351 32C44.0351 30.8213 43.6451 29.842 42.8651 29.062C42.0851 28.282 41.1231 27.892 39.9791 27.892C38.8351 27.892 37.8731 28.282 37.0931 29.062C36.3131 29.842 35.9231 30.8213 35.9231 32ZM49.3821 25.5H60.9521V38.5H58.1441V28.152H52.1901V38.5H49.3821V25.5ZM74.0123 31.948H64.3923V29.244H74.0123V31.948ZM88.2022 22.848L84.5102 27.736C85.8622 28.048 86.9368 28.672 87.7342 29.608C88.5488 30.5267 88.9562 31.6533 88.9562 32.988C88.9562 34.808 88.3408 36.238 87.1102 37.278C85.8968 38.318 84.3888 38.838 82.5862 38.838C81.1648 38.838 79.9082 38.5173 78.8162 37.876C77.7242 37.2173 76.9442 36.2813 76.4762 35.068L79.0242 33.586C79.5615 35.146 80.7488 35.926 82.5862 35.926C83.6262 35.926 84.4495 35.666 85.0562 35.146C85.6628 34.6087 85.9662 33.8893 85.9662 32.988C85.9662 32.0867 85.6628 31.376 85.0562 30.856C84.4495 30.336 83.6262 30.076 82.5862 30.076H81.9102L80.7142 28.282L84.6402 23.108H77.0222V20.3H88.2022V22.848Z" fill="#0B0B0B"/>
<path d="M36.0835 64.0239H35.3584V66.5H34.3594V60.6885H35.3584V63.1484H36.0083L37.9634 60.6885H39.1665L36.8677 63.4814L39.3599 66.5H38.0977L36.0835 64.0239ZM45.123 63.6587C45.123 64.5431 44.9207 65.2557 44.5161 65.7964C44.1115 66.3371 43.5636 66.6074 42.8726 66.6074C42.1672 66.6074 41.6121 66.3836 41.2075 65.936V68.7344H40.2139V60.6885H41.1216L41.1699 61.333C41.5745 60.8317 42.1367 60.5811 42.8564 60.5811C43.5547 60.5811 44.1061 60.8442 44.5107 61.3706C44.9189 61.897 45.123 62.6292 45.123 63.5674V63.6587ZM44.1294 63.5459C44.1294 62.8906 43.9897 62.3732 43.7104 61.9937C43.4312 61.6141 43.048 61.4243 42.561 61.4243C41.9595 61.4243 41.5083 61.6911 41.2075 62.2246V65.0015C41.5047 65.5314 41.9595 65.7964 42.5718 65.7964C43.048 65.7964 43.4258 65.6084 43.7051 65.2324C43.988 64.8529 44.1294 64.2907 44.1294 63.5459ZM48.2275 65.0444L49.5811 60.6885H50.6445L48.3081 67.397C47.9465 68.3638 47.3717 68.8472 46.584 68.8472L46.396 68.8311L46.0254 68.7612V67.9556L46.2939 67.9771C46.6305 67.9771 46.8919 67.909 47.0781 67.7729C47.2679 67.6369 47.4237 67.388 47.5454 67.0264L47.7656 66.4355L45.6924 60.6885H46.7773L48.2275 65.0444ZM56.2896 66.5H55.2959V61.5103H52.6211V66.5H51.6221V60.6885H56.2896V66.5ZM62.6328 66.5H61.6392V64.0186H58.9697V66.5H57.9707V60.6885H58.9697V63.2075H61.6392V60.6885H62.6328V66.5ZM65.3184 62.6919H66.8276C67.4865 62.6991 68.0075 62.8709 68.3906 63.2075C68.7738 63.5441 68.9653 64.0007 68.9653 64.5771C68.9653 65.1572 68.7684 65.6227 68.3745 65.9736C67.9806 66.3245 67.4507 66.5 66.7847 66.5H64.3247V60.6885H65.3184V62.6919ZM71.0386 66.5H70.0396V60.6885H71.0386V66.5ZM65.3184 63.5029V65.689H66.7954C67.1678 65.689 67.4561 65.5941 67.6602 65.4043C67.8643 65.2109 67.9663 64.9478 67.9663 64.6147C67.9663 64.2925 67.866 64.0293 67.6655 63.8252C67.4686 63.6175 67.1911 63.5101 66.833 63.5029H65.3184ZM74.7231 62.8101L76.0122 60.6885H77.1724L75.271 63.562L77.2314 66.5H76.082L74.7393 64.3247L73.3965 66.5H72.2417L74.2021 63.562L72.3008 60.6885H73.4502L74.7231 62.8101ZM21.2002 77.0142C20.3158 76.7599 19.6712 76.4484 19.2666 76.0796C18.8656 75.7072 18.665 75.2489 18.665 74.7046C18.665 74.0887 18.9103 73.5802 19.4009 73.1792C19.895 72.7746 20.536 72.5723 21.3237 72.5723C21.8608 72.5723 22.3389 72.6761 22.7578 72.8838C23.1803 73.0915 23.5062 73.3779 23.7354 73.7432C23.9681 74.1084 24.0845 74.5076 24.0845 74.9409H23.0479C23.0479 74.4683 22.8975 74.0977 22.5967 73.8291C22.2959 73.557 21.8716 73.4209 21.3237 73.4209C20.8153 73.4209 20.4178 73.5337 20.1313 73.7593C19.8485 73.9813 19.707 74.291 19.707 74.6885C19.707 75.0072 19.8413 75.2775 20.1099 75.4995C20.382 75.7179 20.8421 75.9185 21.4902 76.1011C22.1419 76.2837 22.6504 76.486 23.0156 76.708C23.3844 76.9264 23.6566 77.1825 23.832 77.4761C24.0111 77.7697 24.1006 78.1152 24.1006 78.5127C24.1006 79.1465 23.8535 79.6549 23.3594 80.0381C22.8652 80.4176 22.2046 80.6074 21.3774 80.6074C20.8403 80.6074 20.339 80.5054 19.8735 80.3013C19.408 80.0936 19.0482 79.8107 18.7939 79.4526C18.5433 79.0946 18.418 78.6882 18.418 78.2334H19.4546C19.4546 78.7061 19.6283 79.0802 19.9756 79.356C20.3265 79.6281 20.7938 79.7642 21.3774 79.7642C21.9217 79.7642 22.3389 79.6532 22.6289 79.4312C22.9189 79.2091 23.064 78.9066 23.064 78.5234C23.064 78.1403 22.9297 77.8449 22.6611 77.6372C22.3926 77.4259 21.9056 77.2183 21.2002 77.0142ZM29.8477 76.8853H26.4585V79.6567H30.3955V80.5H25.4272V72.6797H30.3418V73.5283H26.4585V76.042H29.8477V76.8853ZM37.6948 76.8423C37.6948 77.6086 37.5659 78.2782 37.3081 78.8511C37.0503 79.4204 36.6851 79.8555 36.2124 80.1562C35.7397 80.457 35.1883 80.6074 34.5581 80.6074C33.9422 80.6074 33.3962 80.457 32.9199 80.1562C32.4437 79.8519 32.0731 79.4204 31.8081 78.8618C31.5467 78.2996 31.4124 77.6497 31.4053 76.9121V76.3481C31.4053 75.5962 31.536 74.932 31.7974 74.3555C32.0588 73.779 32.4276 73.3385 32.9038 73.0342C33.3836 72.7262 33.9315 72.5723 34.5474 72.5723C35.174 72.5723 35.7254 72.7244 36.2017 73.0288C36.6815 73.3296 37.0503 73.7682 37.3081 74.3447C37.5659 74.9176 37.6948 75.5854 37.6948 76.3481V76.8423ZM36.6689 76.3374C36.6689 75.41 36.4827 74.6992 36.1104 74.2051C35.738 73.7074 35.217 73.4585 34.5474 73.4585C33.8957 73.4585 33.3818 73.7074 33.0059 74.2051C32.6335 74.6992 32.4419 75.3867 32.4312 76.2676V76.8423C32.4312 77.741 32.6191 78.4482 32.9951 78.9639C33.3747 79.4759 33.8957 79.7319 34.5581 79.7319C35.2241 79.7319 35.7397 79.4902 36.105 79.0068C36.4702 78.5199 36.6582 77.8234 36.6689 76.9175V76.3374ZM41.1538 77.5835H38.5327V76.7725H41.1538V77.5835ZM43.936 78.0239H43.2109V80.5H42.2119V74.6885H43.2109V77.1484H43.8608L45.8159 74.6885H47.019L44.7202 77.4814L47.2124 80.5H45.9502L43.936 78.0239ZM47.6851 77.5405C47.6851 76.9712 47.7961 76.4591 48.0181 76.0044C48.2437 75.5496 48.5552 75.1987 48.9526 74.9517C49.3537 74.7046 49.8102 74.5811 50.3223 74.5811C51.1136 74.5811 51.7528 74.855 52.2397 75.4028C52.7303 75.9507 52.9756 76.6794 52.9756 77.5889V77.6587C52.9756 78.2244 52.8664 78.7329 52.6479 79.1841C52.4331 79.6317 52.1234 79.9808 51.7188 80.2314C51.3177 80.4821 50.8558 80.6074 50.333 80.6074C49.5452 80.6074 48.9061 80.3335 48.4155 79.7856C47.9285 79.2378 47.6851 78.5127 47.6851 77.6104V77.5405ZM48.6841 77.6587C48.6841 78.3032 48.8327 78.8206 49.1299 79.2109C49.4307 79.6012 49.8317 79.7964 50.333 79.7964C50.8379 79.7964 51.2389 79.5994 51.5361 79.2056C51.8333 78.8081 51.9819 78.2531 51.9819 77.5405C51.9819 76.9032 51.8298 76.3875 51.5254 75.9937C51.2246 75.5962 50.8236 75.3975 50.3223 75.3975C49.8317 75.3975 49.436 75.5926 49.1353 75.9829C48.8345 76.3732 48.6841 76.9318 48.6841 77.6587ZM57.5679 79.1841L59.5444 74.6885H60.7852V80.5H59.7915V76.2729L57.9116 80.5H57.2241L55.3066 76.1816V80.5H54.313V74.6885H55.6021L57.5679 79.1841ZM67.1392 80.5H66.1455V75.5103H63.4707V80.5H62.4717V74.6885H67.1392V80.5ZM72.3223 80.5C72.265 80.3854 72.2184 80.1813 72.1826 79.8877C71.7207 80.3675 71.1693 80.6074 70.5283 80.6074C69.9554 80.6074 69.4845 80.4463 69.1157 80.124C68.7505 79.7982 68.5679 79.3864 68.5679 78.8887C68.5679 78.2835 68.797 77.8145 69.2554 77.4814C69.7173 77.1449 70.3654 76.9766 71.1997 76.9766H72.1665V76.52C72.1665 76.1727 72.0627 75.897 71.855 75.6929C71.6473 75.4852 71.3411 75.3813 70.9365 75.3813C70.582 75.3813 70.2848 75.4709 70.0449 75.6499C69.805 75.8289 69.6851 76.0456 69.6851 76.2998H68.686C68.686 76.0098 68.7881 75.7305 68.9922 75.4619C69.1999 75.1898 69.4792 74.9749 69.8301 74.8174C70.1846 74.6598 70.5731 74.5811 70.9956 74.5811C71.6652 74.5811 72.1898 74.7493 72.5693 75.0859C72.9489 75.4189 73.1458 75.8791 73.1602 76.4663V79.1411C73.1602 79.6746 73.2282 80.099 73.3643 80.4141V80.5H72.3223ZM70.6733 79.7427C70.9849 79.7427 71.2803 79.6621 71.5596 79.501C71.8389 79.3398 72.0412 79.1304 72.1665 78.8726V77.6802H71.3877C70.1702 77.6802 69.5615 78.0365 69.5615 78.749C69.5615 79.0605 69.6654 79.304 69.873 79.4795C70.0807 79.6549 70.3475 79.7427 70.6733 79.7427ZM79.4658 80.5H78.4722V78.0186H75.8027V80.5H74.8037V74.6885H75.8027V77.2075H78.4722V74.6885H79.4658V80.5ZM84.8262 74.6885H85.8198V80.5H84.8262V76.2622L82.146 80.5H81.1523V74.6885H82.146V78.9316L84.8262 74.6885ZM91.1748 74.6885H92.1685V80.5H91.1748V76.2622L88.4946 80.5H87.501V74.6885H88.4946V78.9316L91.1748 74.6885ZM91.4434 72.5723C91.4434 73.0055 91.2948 73.3547 90.9976 73.6196C90.7039 73.881 90.3172 74.0117 89.8374 74.0117C89.3576 74.0117 88.9691 73.8792 88.6719 73.6143C88.3747 73.3493 88.2261 73.002 88.2261 72.5723H89.0371C89.0371 72.8229 89.1051 73.0199 89.2412 73.1631C89.3773 73.3027 89.576 73.3726 89.8374 73.3726C90.0881 73.3726 90.2832 73.3027 90.4229 73.1631C90.5661 73.0234 90.6377 72.8265 90.6377 72.5723H91.4434Z" fill="#0B0B0B"/>
<line x1="27.5" y1="50" x2="85.5" y2="50" stroke="#DADADA"/>
</svg>
