<svg width="110" height="120" viewBox="0 0 110 120" fill="none" xmlns="http://www.w3.org/2000/svg">
<path d="M107 3H3V83.5L56 115.5L107 83.5V3Z" fill="white" stroke="#FEDB4B" stroke-width="6"/>
<path d="M26 45H84" stroke="#DADADA"/>
<path d="M34.2228 68.5417C34.2084 68.1996 34.202 67.9119 34.2052 67.4019C34.2148 65.6979 34.2052 63.9923 34.2052 62.2866C34.2052 61.9669 34.2052 61.6472 34.2052 61.278H32.4996L29.3932 68.3403C28.763 68.3706 28.6609 68.3658 28.0227 68.3658C27.801 68.3658 27.5441 68.3834 26.9937 68.3834C28.1679 65.8119 29.3135 63.3006 30.4303 60.8496C30.3808 60.7728 30.3553 60.6785 30.2963 60.6465C28.57 59.6794 27.876 58.1049 27.7148 56.2362C27.5712 54.5817 27.7722 52.972 28.7551 51.5781C29.7123 50.2305 30.8563 49.5 32.7438 49.5C33.5941 49.5 34.4445 49.5128 35.2965 49.5C35.6076 49.5 35.7177 49.5 36.3575 49.5C36.3575 50.5438 36.3655 51.4934 36.3671 52.5372C36.3687 53.581 36.3671 54.668 36.3671 55.7343C36.3671 56.8005 36.3671 57.8651 36.3671 58.9313C36.3671 59.9704 36.3671 61.0089 36.3671 62.0469C36.3671 63.1115 36.383 64.1777 36.3671 65.2439C36.3511 66.3101 36.3671 67.4659 36.3527 68.4522C35.7895 68.4761 34.553 68.5417 34.2228 68.5417ZM34.2451 51.2776C32.0944 50.8811 30.6952 51.7172 30.1671 53.6754C30.0197 54.2002 29.9329 54.7404 29.9086 55.2851C29.901 55.7861 29.9421 56.2867 30.0314 56.7797C30.3649 58.7491 31.7434 59.8329 34.2435 59.3374L34.2451 51.2776Z" fill="#E1231E"/>
<path d="M55.9196 66.7945L56.9982 66.8617V71.1777H55.149V68.6233H49.3734V71.1809H47.5386V66.908L48.3618 66.7658C49.7515 63.0252 49.6494 59.0784 49.6909 55.0869H55.9132L55.9196 66.7945ZM51.5799 56.7702C51.5512 60.1958 51.4555 63.5351 50.3785 66.7754H53.8295V56.7702H51.5799Z" fill="#121313"/>
<path d="M41.1491 68.5435H39.0479V55.0679H41.0979V60.6995H44.2123V55.0759H46.2641V68.5227H44.222V62.5666H41.1491V68.5435Z" fill="#121313"/>
<path d="M76.1408 68.553H73.8513L70.4449 62.1445L70.3173 62.1812V68.553H68.2432V55.0838H70.2934V60.8704L70.4848 60.9136L73.5162 55.063H75.6621L72.3388 61.4123L76.1408 68.553Z" fill="#121313"/>
<path d="M66.0571 62.3298H60.524C60.457 63.4263 60.5399 64.4462 60.942 65.4213C61.4573 66.6698 62.3779 67.1797 63.6703 66.86C64.3276 66.7001 64.9466 66.4044 65.6439 66.1486L66.1034 67.5873C63.6224 69.8396 59.8539 68.8805 58.7737 65.7394C58.1355 63.8787 58.2073 61.9701 58.4052 60.0582C58.5296 58.8625 58.8025 57.702 59.4119 56.6454C60.2575 55.1955 61.5243 54.6153 63.1661 54.935C63.8745 55.0756 64.4856 55.4049 64.8653 56.0156C65.2006 56.5523 65.471 57.127 65.671 57.7276C66.1464 59.195 66.0986 60.7088 66.0571 62.3298ZM63.8888 60.5298C63.9223 59.3949 63.8888 58.3366 63.4102 57.3583C63.0432 56.6102 62.3157 56.3608 61.7062 56.7845C61.4293 56.9857 61.2094 57.2556 61.068 57.5677C60.6707 58.5024 60.4891 59.515 60.5367 60.5298H63.8888Z" fill="#121313"/>
<path d="M83.7081 55.5953L83.4177 57.4704C82.9566 57.2322 82.5769 56.9908 82.1717 56.831C80.9703 56.3514 79.9492 56.7079 79.3716 57.8684C79.0911 58.4111 78.8942 58.9931 78.7877 59.5948C78.5212 61.225 78.5536 62.8902 78.8834 64.5087C78.9259 64.716 78.9792 64.9208 79.0429 65.1225C79.6253 66.9369 80.8155 67.4228 82.6599 66.63C82.8964 66.5112 83.1265 66.3799 83.3491 66.2367C83.4448 66.4845 83.5438 66.7163 83.6251 66.9545C83.7065 67.1926 83.7607 67.41 83.8533 67.7266C83.6224 67.916 83.3794 68.0901 83.1258 68.2477C80.8554 69.4849 78.1798 68.5498 77.1427 66.1584C76.5795 64.8668 76.4152 63.4936 76.396 62.1061C76.3737 60.4213 76.5301 58.7588 77.3182 57.2226C78.534 54.876 81.4314 54.1071 83.7081 55.5953Z" fill="#121313"/>
<path d="M43.2367 85.8969L44.0616 85.9817V88.7871L43.3947 88.8302L43.2447 86.7522H37.8073L37.6892 88.7903L37 88.8478V86.0568C37.5457 85.8969 37.7754 85.4174 37.9445 84.8819C38.4343 83.3153 38.5109 81.6944 38.5715 80.0719C38.6465 78.053 38.6944 76.0324 38.7566 73.9399H43.2383L43.2367 85.8969ZM42.2236 85.9161V74.6912H39.5001C39.5001 75.6711 39.5432 76.6095 39.4905 77.5254C39.3709 79.6483 39.2337 81.7711 39.0374 83.8892C38.9736 84.5782 38.704 85.2463 38.5301 85.9161H42.2236Z" fill="#121313"/>
<path d="M53.2663 86.3155V89.4455L52.4175 89.4998V77.6899L53.07 77.6483C53.0956 78.0623 53.1163 78.5259 53.1418 78.9575C53.4109 78.5699 53.7332 78.2223 54.0991 77.9249C54.8681 77.2615 55.9307 77.3222 56.5785 78.1039C56.9052 78.4873 57.1505 78.9332 57.2996 79.4147C57.8425 81.2672 57.7912 83.2438 57.1528 85.0655C56.7045 86.3443 55.7169 86.9837 54.5442 86.8015C54.1151 86.7344 53.7194 86.4946 53.2663 86.3155ZM56.7955 82.1098C56.8114 81.7297 56.7889 81.3489 56.7285 80.9733C56.6046 80.2724 56.4089 79.5862 56.1445 78.9255C55.8525 78.2653 55.2 78.0591 54.6113 78.3709C53.8438 78.7753 53.3078 79.4403 53.2663 80.3083C53.1961 81.7949 53.2328 83.2879 53.2663 84.7842C53.2832 85.07 53.388 85.3436 53.5662 85.5674C54.3384 86.5266 55.6946 86.3443 56.2355 85.2094C56.6997 84.2199 56.7683 83.3551 56.7955 82.1098Z" fill="#121313"/>
<path d="M49.4481 79.6306L46.1981 86.6641L45.4785 86.7025V77.6916L46.2076 77.6548V84.7618L46.3209 84.8002L49.6252 77.6836H50.332V86.6609L49.6108 86.7025V79.6689L49.4481 79.6306Z" fill="#121313"/>
<path d="M66.2674 81.653L69.0978 77.6967H69.9402L67.0029 81.8528L70.1651 86.6644L69.2541 86.7156L66.2865 82.318L66.1573 82.3372V86.6532H65.2798V77.7015L66.1015 77.6455V81.5811L66.2674 81.653Z" fill="#121313"/>
<path d="M63.6273 82.3242H59.6482C59.6035 83.3584 59.7088 84.3223 60.1667 85.2015C60.6453 86.1223 61.6026 86.3765 62.5487 85.8617C62.8522 85.6712 63.1432 85.4613 63.4199 85.2335L63.6831 85.8425C62.9285 86.7537 61.9983 86.9999 60.9325 86.7793C59.9322 86.5731 59.4264 85.8282 59.1456 84.9266C58.6509 83.2859 58.6166 81.5405 59.0467 79.8816C59.1883 79.3419 59.4303 78.8337 59.7599 78.3838C60.7395 77.0219 62.5009 77.2041 63.2507 78.7035C63.6911 79.5971 63.8618 81.1045 63.6273 82.3242ZM62.8614 81.6224C62.9665 80.7932 62.8746 79.9508 62.5934 79.1639C62.3988 78.6492 62.0478 78.2287 61.4383 78.2048C60.8751 78.1872 60.5113 78.5245 60.2497 79.004C59.7981 79.8033 59.6514 80.6745 59.6514 81.624L62.8614 81.6224Z" fill="#121313"/>
<path d="M73.4279 86.7043C73.1582 86.7043 73.029 86.7043 72.9013 86.7043C72.8008 86.7043 72.7003 86.6803 72.5408 86.6596V78.3888H70.5305L70.4507 77.7046H75.4238V78.3696H73.4294L73.4279 86.7043Z" fill="#121313"/>
<path d="M15.7832 22.9653H16.627C16.583 23.3696 16.4673 23.7314 16.2798 24.0508C16.0923 24.3701 15.8271 24.6235 15.4844 24.811C15.1416 24.9956 14.7139 25.0879 14.2012 25.0879C13.8262 25.0879 13.4849 25.0176 13.1772 24.877C12.8726 24.7363 12.6104 24.5371 12.3906 24.2793C12.1709 24.0186 12.001 23.7065 11.8809 23.3433C11.7637 22.9771 11.7051 22.5698 11.7051 22.1216V21.4844C11.7051 21.0361 11.7637 20.6304 11.8809 20.2671C12.001 19.9009 12.1724 19.5874 12.395 19.3267C12.6206 19.0659 12.8916 18.8652 13.208 18.7246C13.5244 18.584 13.8804 18.5137 14.2759 18.5137C14.7593 18.5137 15.168 18.6045 15.502 18.7861C15.8359 18.9678 16.0952 19.2197 16.2798 19.542C16.4673 19.8613 16.583 20.2319 16.627 20.6538H15.7832C15.7422 20.355 15.666 20.0986 15.5547 19.8848C15.4434 19.668 15.2852 19.501 15.0801 19.3838C14.875 19.2666 14.6069 19.208 14.2759 19.208C13.9917 19.208 13.7412 19.2622 13.5244 19.3706C13.3105 19.479 13.1304 19.6328 12.9839 19.832C12.8403 20.0312 12.7319 20.27 12.6587 20.5483C12.5854 20.8267 12.5488 21.1357 12.5488 21.4756V22.1216C12.5488 22.4351 12.5811 22.7295 12.6455 23.0049C12.7129 23.2803 12.814 23.522 12.9487 23.73C13.0835 23.938 13.2549 24.1021 13.4629 24.2222C13.6709 24.3394 13.917 24.3979 14.2012 24.3979C14.5615 24.3979 14.8486 24.3408 15.0625 24.2266C15.2764 24.1123 15.4375 23.9482 15.5459 23.7344C15.6572 23.5205 15.7363 23.2642 15.7832 22.9653ZM19.6328 25.0879C19.3018 25.0879 19.0015 25.0322 18.7319 24.9209C18.4653 24.8066 18.2354 24.647 18.042 24.4419C17.8516 24.2368 17.7051 23.9937 17.6025 23.7124C17.5 23.4312 17.4487 23.1235 17.4487 22.7896V22.605C17.4487 22.2183 17.5059 21.874 17.6201 21.5723C17.7344 21.2676 17.8896 21.0098 18.0859 20.7988C18.2822 20.5879 18.5049 20.4282 18.7539 20.3198C19.0029 20.2114 19.2607 20.1572 19.5273 20.1572C19.8672 20.1572 20.1602 20.2158 20.4062 20.333C20.6553 20.4502 20.8589 20.6143 21.0171 20.8252C21.1753 21.0332 21.2925 21.2793 21.3687 21.5635C21.4448 21.8447 21.4829 22.1523 21.4829 22.4863V22.8511H17.9321V22.1875H20.6699V22.126C20.6582 21.915 20.6143 21.71 20.5381 21.5107C20.4648 21.3115 20.3477 21.1475 20.1865 21.0186C20.0254 20.8896 19.8057 20.8252 19.5273 20.8252C19.3428 20.8252 19.1729 20.8647 19.0176 20.9438C18.8623 21.02 18.729 21.1343 18.6177 21.2866C18.5063 21.439 18.4199 21.625 18.3584 21.8447C18.2969 22.0645 18.2661 22.3179 18.2661 22.605V22.7896C18.2661 23.0151 18.2969 23.2275 18.3584 23.4268C18.4229 23.623 18.5151 23.7959 18.6353 23.9453C18.7583 24.0947 18.9062 24.2119 19.0791 24.2969C19.2549 24.3818 19.4541 24.4243 19.6768 24.4243C19.9639 24.4243 20.207 24.3657 20.4062 24.2485C20.6055 24.1313 20.7798 23.9746 20.9292 23.7783L21.4214 24.1694C21.3188 24.3247 21.1885 24.4727 21.0303 24.6133C20.8721 24.7539 20.6772 24.8682 20.4458 24.9561C20.2173 25.0439 19.9463 25.0879 19.6328 25.0879ZM23.2451 21.1592V26.8281H22.4277V20.2451H23.1748L23.2451 21.1592ZM26.4487 22.583V22.6753C26.4487 23.021 26.4077 23.3418 26.3257 23.6377C26.2437 23.9307 26.1235 24.1855 25.9653 24.4023C25.8101 24.6191 25.6182 24.7876 25.3896 24.9077C25.1611 25.0278 24.8989 25.0879 24.603 25.0879C24.3013 25.0879 24.0347 25.0381 23.8032 24.9385C23.5718 24.8389 23.3755 24.6938 23.2144 24.5034C23.0532 24.313 22.9243 24.0845 22.8276 23.8179C22.7339 23.5513 22.6694 23.251 22.6343 22.917V22.4248C22.6694 22.0732 22.7354 21.7583 22.832 21.48C22.9287 21.2017 23.0562 20.9644 23.2144 20.7681C23.3755 20.5688 23.5703 20.418 23.7988 20.3154C24.0273 20.21 24.291 20.1572 24.5898 20.1572C24.8887 20.1572 25.1538 20.2158 25.3853 20.333C25.6167 20.4473 25.8115 20.6113 25.9697 20.8252C26.1279 21.0391 26.2466 21.2954 26.3257 21.5942C26.4077 21.8901 26.4487 22.2197 26.4487 22.583ZM25.6313 22.6753V22.583C25.6313 22.3457 25.6064 22.123 25.5566 21.915C25.5068 21.7041 25.4292 21.5195 25.3237 21.3613C25.2212 21.2002 25.0894 21.0742 24.9282 20.9834C24.7671 20.8896 24.5752 20.8428 24.3525 20.8428C24.1475 20.8428 23.9688 20.8779 23.8164 20.9482C23.667 21.0186 23.5396 21.1138 23.4341 21.2339C23.3286 21.3511 23.2422 21.4858 23.1748 21.6382C23.1104 21.7876 23.062 21.9429 23.0298 22.104V23.2422C23.0884 23.4473 23.1704 23.6406 23.2759 23.8223C23.3813 24.001 23.522 24.146 23.6978 24.2573C23.8735 24.3657 24.0947 24.4199 24.3613 24.4199C24.5811 24.4199 24.77 24.3745 24.9282 24.2837C25.0894 24.1899 25.2212 24.0625 25.3237 23.9014C25.4292 23.7402 25.5068 23.5557 25.5566 23.3477C25.6064 23.1367 25.6313 22.9126 25.6313 22.6753ZM29.0723 20.2451V25H28.2549V20.2451H29.0723ZM30.6675 20.2451V20.9043H26.6904V20.2451H30.6675ZM32.3462 23.7124L34.5391 20.2451H35.3564V25H34.5391V21.5327L32.3462 25H31.5376V20.2451H32.3462V23.7124ZM42.1284 22.7061V22.7983C42.1284 23.1323 42.0918 23.4399 42.0186 23.7212C41.9453 23.9995 41.8354 24.2412 41.689 24.4463C41.5454 24.6514 41.3667 24.811 41.1528 24.9253C40.939 25.0366 40.6914 25.0923 40.4102 25.0923C40.1787 25.0923 39.9751 25.0615 39.7993 25C39.6235 24.9355 39.4741 24.8433 39.3511 24.7231C39.231 24.603 39.1343 24.4595 39.061 24.2925C38.9907 24.1226 38.9424 23.9321 38.916 23.7212V21.6118C38.9424 21.3862 38.9907 21.1841 39.061 21.0054C39.1343 20.8267 39.231 20.6743 39.3511 20.5483C39.4741 20.4224 39.6221 20.3257 39.7949 20.2583C39.9678 20.1909 40.1699 20.1572 40.4014 20.1572C40.6299 20.1572 40.835 20.1982 41.0166 20.2803C41.2012 20.3594 41.3623 20.4736 41.5 20.623C41.6406 20.7725 41.7563 20.9526 41.8472 21.1636C41.9409 21.3716 42.0112 21.606 42.0581 21.8667C42.105 22.1274 42.1284 22.4072 42.1284 22.7061ZM41.3154 22.7983V22.7061C41.3154 22.501 41.3008 22.3062 41.2715 22.1216C41.2451 21.9341 41.2026 21.7627 41.144 21.6074C41.0884 21.4492 41.0151 21.3115 40.9243 21.1943C40.8335 21.0771 40.7236 20.9863 40.5947 20.9219C40.4688 20.8574 40.3237 20.8252 40.1597 20.8252C39.9839 20.8252 39.8374 20.8472 39.7202 20.8911C39.606 20.9351 39.5166 20.9937 39.4521 21.0669C39.3877 21.1372 39.3408 21.2119 39.3115 21.291V24.0464C39.3467 24.1108 39.3979 24.1724 39.4653 24.231C39.5327 24.2866 39.6235 24.3335 39.7378 24.3716C39.8521 24.4067 39.9956 24.4243 40.1685 24.4243C40.3735 24.4243 40.5479 24.3833 40.6914 24.3013C40.8379 24.2163 40.9565 24.0991 41.0474 23.9497C41.1411 23.8003 41.2085 23.6274 41.2495 23.4312C41.2935 23.2349 41.3154 23.0239 41.3154 22.7983ZM36.4814 22.7983V22.7061C36.4814 22.4072 36.5049 22.1274 36.5518 21.8667C36.5986 21.606 36.6689 21.3716 36.7627 21.1636C36.8564 20.9526 36.9722 20.7725 37.1099 20.623C37.2505 20.4736 37.4116 20.3594 37.5933 20.2803C37.7778 20.1982 37.9844 20.1572 38.2129 20.1572C38.4385 20.1572 38.6348 20.1909 38.8018 20.2583C38.9717 20.3257 39.1152 20.4224 39.2324 20.5483C39.3496 20.6743 39.4434 20.8267 39.5137 21.0054C39.584 21.1841 39.6338 21.3862 39.6631 21.6118V23.6377C39.6367 23.8604 39.5884 24.061 39.5181 24.2397C39.4478 24.4185 39.354 24.5723 39.2368 24.7012C39.1196 24.8271 38.9746 24.9238 38.8018 24.9912C38.6318 25.0586 38.4326 25.0923 38.2041 25.0923C37.9229 25.0923 37.6753 25.0366 37.4614 24.9253C37.2476 24.811 37.0674 24.6514 36.9209 24.4463C36.7773 24.2412 36.6675 23.9995 36.5913 23.7212C36.5181 23.4399 36.4814 23.1323 36.4814 22.7983ZM37.2988 22.7061V22.7983C37.2988 23.0239 37.3179 23.2349 37.356 23.4312C37.397 23.6274 37.46 23.8003 37.5449 23.9497C37.6328 24.0991 37.7471 24.2163 37.8877 24.3013C38.0283 24.3833 38.2012 24.4243 38.4062 24.4243C38.582 24.4243 38.7271 24.4023 38.8413 24.3584C38.9556 24.3145 39.0464 24.2573 39.1138 24.187C39.1812 24.1167 39.2324 24.0435 39.2676 23.9673V21.291C39.2383 21.2119 39.1899 21.1372 39.1226 21.0669C39.0581 20.9937 38.9688 20.9351 38.8545 20.8911C38.7402 20.8472 38.5938 20.8252 38.415 20.8252C38.21 20.8252 38.0356 20.875 37.8921 20.9746C37.7485 21.0742 37.6328 21.2104 37.5449 21.3833C37.46 21.5562 37.397 21.7568 37.356 21.9854C37.3179 22.2109 37.2988 22.4512 37.2988 22.7061ZM38.8633 26.8281V18.25H39.6807V26.8281H38.8633ZM44.0708 23.7124L46.2637 20.2451H47.0811V25H46.2637V21.5327L44.0708 25H43.2622V20.2451H44.0708V23.7124ZM48.4565 25V20.2451H49.2695V24.332H51.458V20.2451H52.2754V25H48.4565ZM52.8379 24.332L52.7588 26.4106H52.0337V25H51.4141V24.332H52.8379ZM54.6001 23.7124L56.793 20.2451H57.6104V25H56.793V21.5327L54.6001 25H53.7915V20.2451H54.6001V23.7124ZM59.7285 21.1592V26.8281H58.9111V20.2451H59.6582L59.7285 21.1592ZM62.9321 22.583V22.6753C62.9321 23.021 62.8911 23.3418 62.8091 23.6377C62.7271 23.9307 62.6069 24.1855 62.4487 24.4023C62.2935 24.6191 62.1016 24.7876 61.873 24.9077C61.6445 25.0278 61.3823 25.0879 61.0864 25.0879C60.7847 25.0879 60.5181 25.0381 60.2866 24.9385C60.0552 24.8389 59.8589 24.6938 59.6978 24.5034C59.5366 24.313 59.4077 24.0845 59.311 23.8179C59.2173 23.5513 59.1528 23.251 59.1177 22.917V22.4248C59.1528 22.0732 59.2188 21.7583 59.3154 21.48C59.4121 21.2017 59.5396 20.9644 59.6978 20.7681C59.8589 20.5688 60.0537 20.418 60.2822 20.3154C60.5107 20.21 60.7744 20.1572 61.0732 20.1572C61.3721 20.1572 61.6372 20.2158 61.8687 20.333C62.1001 20.4473 62.2949 20.6113 62.4531 20.8252C62.6113 21.0391 62.73 21.2954 62.8091 21.5942C62.8911 21.8901 62.9321 22.2197 62.9321 22.583ZM62.1147 22.6753V22.583C62.1147 22.3457 62.0898 22.123 62.04 21.915C61.9902 21.7041 61.9126 21.5195 61.8071 21.3613C61.7046 21.2002 61.5728 21.0742 61.4116 20.9834C61.2505 20.8896 61.0586 20.8428 60.8359 20.8428C60.6309 20.8428 60.4521 20.8779 60.2998 20.9482C60.1504 21.0186 60.0229 21.1138 59.9175 21.2339C59.812 21.3511 59.7256 21.4858 59.6582 21.6382C59.5938 21.7876 59.5454 21.9429 59.5132 22.104V23.2422C59.5718 23.4473 59.6538 23.6406 59.7593 23.8223C59.8647 24.001 60.0054 24.146 60.1812 24.2573C60.3569 24.3657 60.5781 24.4199 60.8447 24.4199C61.0645 24.4199 61.2534 24.3745 61.4116 24.2837C61.5728 24.1899 61.7046 24.0625 61.8071 23.9014C61.9126 23.7402 61.9902 23.5557 62.04 23.3477C62.0898 23.1367 62.1147 22.9126 62.1147 22.6753ZM63.7539 22.6753V22.5742C63.7539 22.2314 63.8037 21.9136 63.9033 21.6206C64.0029 21.3247 64.1465 21.0684 64.334 20.8516C64.5215 20.6318 64.7485 20.4619 65.0151 20.3418C65.2817 20.2188 65.5806 20.1572 65.9116 20.1572C66.2456 20.1572 66.5459 20.2188 66.8125 20.3418C67.082 20.4619 67.3105 20.6318 67.498 20.8516C67.6885 21.0684 67.8335 21.3247 67.9331 21.6206C68.0327 21.9136 68.0825 22.2314 68.0825 22.5742V22.6753C68.0825 23.0181 68.0327 23.3359 67.9331 23.6289C67.8335 23.9219 67.6885 24.1782 67.498 24.3979C67.3105 24.6147 67.0835 24.7847 66.8169 24.9077C66.5532 25.0278 66.2544 25.0879 65.9204 25.0879C65.5864 25.0879 65.2861 25.0278 65.0195 24.9077C64.7529 24.7847 64.5244 24.6147 64.334 24.3979C64.1465 24.1782 64.0029 23.9219 63.9033 23.6289C63.8037 23.3359 63.7539 23.0181 63.7539 22.6753ZM64.5669 22.5742V22.6753C64.5669 22.9126 64.5947 23.1367 64.6504 23.3477C64.7061 23.5557 64.7896 23.7402 64.9009 23.9014C65.0151 24.0625 65.1572 24.1899 65.3271 24.2837C65.4971 24.3745 65.6948 24.4199 65.9204 24.4199C66.1431 24.4199 66.3379 24.3745 66.5049 24.2837C66.6748 24.1899 66.8154 24.0625 66.9268 23.9014C67.0381 23.7402 67.1216 23.5557 67.1772 23.3477C67.2358 23.1367 67.2651 22.9126 67.2651 22.6753V22.5742C67.2651 22.3398 67.2358 22.1187 67.1772 21.9106C67.1216 21.6997 67.0366 21.5137 66.9224 21.3525C66.811 21.1885 66.6704 21.0596 66.5005 20.9658C66.3335 20.8721 66.1372 20.8252 65.9116 20.8252C65.689 20.8252 65.4927 20.8721 65.3228 20.9658C65.1558 21.0596 65.0151 21.1885 64.9009 21.3525C64.7896 21.5137 64.7061 21.6997 64.6504 21.9106C64.5947 22.1187 64.5669 22.3398 64.5669 22.5742ZM71.3345 22.9082H69.7744L69.7656 22.2578H71.04C71.292 22.2578 71.5015 22.2329 71.6685 22.1831C71.8384 22.1333 71.9658 22.0586 72.0508 21.959C72.1357 21.8594 72.1782 21.7363 72.1782 21.5898C72.1782 21.4756 72.1533 21.376 72.1035 21.291C72.0566 21.2031 71.9849 21.1313 71.8882 21.0757C71.7915 21.0171 71.6714 20.9746 71.5278 20.9482C71.3872 20.9189 71.2217 20.9043 71.0312 20.9043H69.9897V25H69.1768V20.2451H71.0312C71.333 20.2451 71.604 20.2715 71.8442 20.3242C72.0874 20.377 72.2939 20.4575 72.4639 20.5659C72.6367 20.6714 72.7686 20.8062 72.8594 20.9702C72.9502 21.1343 72.9956 21.3276 72.9956 21.5503C72.9956 21.6938 72.9663 21.8301 72.9077 21.959C72.8491 22.0879 72.7627 22.2021 72.6484 22.3018C72.5342 22.4014 72.3936 22.4834 72.2266 22.5479C72.0596 22.6094 71.8677 22.6489 71.6509 22.6665L71.3345 22.9082ZM71.3345 25H69.48L69.8843 24.3408H71.3345C71.5601 24.3408 71.7476 24.313 71.897 24.2573C72.0464 24.1987 72.1577 24.1167 72.231 24.0112C72.3071 23.9028 72.3452 23.7739 72.3452 23.6245C72.3452 23.4751 72.3071 23.3477 72.231 23.2422C72.1577 23.1338 72.0464 23.0518 71.897 22.9961C71.7476 22.9375 71.5601 22.9082 71.3345 22.9082H70.0996L70.1084 22.2578H71.6509L71.9453 22.5039C72.2061 22.5244 72.4272 22.5889 72.6089 22.6973C72.7905 22.8057 72.9282 22.9434 73.022 23.1104C73.1157 23.2744 73.1626 23.4531 73.1626 23.6465C73.1626 23.8691 73.1201 24.0654 73.0352 24.2354C72.9531 24.4053 72.833 24.5474 72.6748 24.6616C72.5166 24.7729 72.3247 24.8579 72.0991 24.9165C71.8735 24.9722 71.6187 25 71.3345 25ZM77.0562 24.187V21.7393C77.0562 21.5518 77.0181 21.3892 76.9419 21.2515C76.8687 21.1108 76.7573 21.0024 76.6079 20.9263C76.4585 20.8501 76.2739 20.812 76.0542 20.812C75.8491 20.812 75.6689 20.8472 75.5137 20.9175C75.3613 20.9878 75.2412 21.0801 75.1533 21.1943C75.0684 21.3086 75.0259 21.4316 75.0259 21.5635H74.2129C74.2129 21.3936 74.2568 21.2251 74.3447 21.0581C74.4326 20.8911 74.5586 20.7402 74.7227 20.6055C74.8896 20.4678 75.0889 20.3594 75.3203 20.2803C75.5547 20.1982 75.8154 20.1572 76.1025 20.1572C76.4482 20.1572 76.7529 20.2158 77.0166 20.333C77.2832 20.4502 77.4912 20.6274 77.6406 20.8647C77.793 21.0991 77.8691 21.3936 77.8691 21.748V23.9629C77.8691 24.1211 77.8823 24.2896 77.9087 24.4683C77.938 24.647 77.9805 24.8008 78.0361 24.9297V25H77.188C77.147 24.9062 77.1147 24.7817 77.0913 24.6265C77.0679 24.4683 77.0562 24.3218 77.0562 24.187ZM77.1968 22.1172L77.2056 22.6885H76.3838C76.1523 22.6885 75.9458 22.7075 75.7642 22.7456C75.5825 22.7808 75.4302 22.835 75.3071 22.9082C75.1841 22.9814 75.0903 23.0737 75.0259 23.1851C74.9614 23.2935 74.9292 23.4209 74.9292 23.5674C74.9292 23.7168 74.9629 23.853 75.0303 23.9761C75.0977 24.0991 75.1987 24.1973 75.3335 24.2705C75.4712 24.3408 75.6396 24.376 75.8389 24.376C76.0879 24.376 76.3076 24.3232 76.498 24.2178C76.6885 24.1123 76.8394 23.9834 76.9507 23.8311C77.0649 23.6787 77.1265 23.5308 77.1353 23.3872L77.4824 23.7783C77.4619 23.9014 77.4062 24.0376 77.3154 24.187C77.2246 24.3364 77.103 24.48 76.9507 24.6177C76.8013 24.7524 76.6226 24.8652 76.4146 24.9561C76.2095 25.0439 75.978 25.0879 75.7202 25.0879C75.3979 25.0879 75.1152 25.0249 74.8721 24.8989C74.6318 24.7729 74.4443 24.6045 74.3096 24.3936C74.1777 24.1797 74.1118 23.9409 74.1118 23.6772C74.1118 23.4224 74.1616 23.1982 74.2612 23.0049C74.3608 22.8086 74.5044 22.646 74.6919 22.5171C74.8794 22.3853 75.105 22.2856 75.3687 22.2183C75.6323 22.1509 75.9268 22.1172 76.252 22.1172H77.1968ZM82.3735 22.3062V22.9653H79.8599V22.3062H82.3735ZM80.0312 20.2451V25H79.2183V20.2451H80.0312ZM83.0327 20.2451V25H82.2153V20.2451H83.0327ZM87.5679 22.3062V22.9653H85.0542V22.3062H87.5679ZM85.2256 20.2451V25H84.4126V20.2451H85.2256ZM88.2271 20.2451V25H87.4097V20.2451H88.2271ZM89.3213 22.6753V22.5742C89.3213 22.2314 89.3711 21.9136 89.4707 21.6206C89.5703 21.3247 89.7139 21.0684 89.9014 20.8516C90.0889 20.6318 90.3159 20.4619 90.5825 20.3418C90.8491 20.2188 91.1479 20.1572 91.479 20.1572C91.813 20.1572 92.1133 20.2188 92.3799 20.3418C92.6494 20.4619 92.8779 20.6318 93.0654 20.8516C93.2559 21.0684 93.4009 21.3247 93.5005 21.6206C93.6001 21.9136 93.6499 22.2314 93.6499 22.5742V22.6753C93.6499 23.0181 93.6001 23.3359 93.5005 23.6289C93.4009 23.9219 93.2559 24.1782 93.0654 24.3979C92.8779 24.6147 92.6509 24.7847 92.3843 24.9077C92.1206 25.0278 91.8218 25.0879 91.4878 25.0879C91.1538 25.0879 90.8535 25.0278 90.5869 24.9077C90.3203 24.7847 90.0918 24.6147 89.9014 24.3979C89.7139 24.1782 89.5703 23.9219 89.4707 23.6289C89.3711 23.3359 89.3213 23.0181 89.3213 22.6753ZM90.1343 22.5742V22.6753C90.1343 22.9126 90.1621 23.1367 90.2178 23.3477C90.2734 23.5557 90.3569 23.7402 90.4683 23.9014C90.5825 24.0625 90.7246 24.1899 90.8945 24.2837C91.0645 24.3745 91.2622 24.4199 91.4878 24.4199C91.7104 24.4199 91.9053 24.3745 92.0723 24.2837C92.2422 24.1899 92.3828 24.0625 92.4941 23.9014C92.6055 23.7402 92.689 23.5557 92.7446 23.3477C92.8032 23.1367 92.8325 22.9126 92.8325 22.6753V22.5742C92.8325 22.3398 92.8032 22.1187 92.7446 21.9106C92.689 21.6997 92.604 21.5137 92.4897 21.3525C92.3784 21.1885 92.2378 21.0596 92.0679 20.9658C91.9009 20.8721 91.7046 20.8252 91.479 20.8252C91.2563 20.8252 91.0601 20.8721 90.8901 20.9658C90.7231 21.0596 90.5825 21.1885 90.4683 21.3525C90.3569 21.5137 90.2734 21.6997 90.2178 21.9106C90.1621 22.1187 90.1343 22.3398 90.1343 22.5742ZM96.6426 25.0879C96.3115 25.0879 96.0112 25.0322 95.7417 24.9209C95.4751 24.8066 95.2451 24.647 95.0518 24.4419C94.8613 24.2368 94.7148 23.9937 94.6123 23.7124C94.5098 23.4312 94.4585 23.1235 94.4585 22.7896V22.605C94.4585 22.2183 94.5156 21.874 94.6299 21.5723C94.7441 21.2676 94.8994 21.0098 95.0957 20.7988C95.292 20.5879 95.5146 20.4282 95.7637 20.3198C96.0127 20.2114 96.2705 20.1572 96.5371 20.1572C96.877 20.1572 97.1699 20.2158 97.416 20.333C97.665 20.4502 97.8687 20.6143 98.0269 20.8252C98.1851 21.0332 98.3022 21.2793 98.3784 21.5635C98.4546 21.8447 98.4927 22.1523 98.4927 22.4863V22.8511H94.9419V22.1875H97.6797V22.126C97.668 21.915 97.624 21.71 97.5479 21.5107C97.4746 21.3115 97.3574 21.1475 97.1963 21.0186C97.0352 20.8896 96.8154 20.8252 96.5371 20.8252C96.3525 20.8252 96.1826 20.8647 96.0273 20.9438C95.8721 21.02 95.7388 21.1343 95.6274 21.2866C95.5161 21.439 95.4297 21.625 95.3682 21.8447C95.3066 22.0645 95.2759 22.3179 95.2759 22.605V22.7896C95.2759 23.0151 95.3066 23.2275 95.3682 23.4268C95.4326 23.623 95.5249 23.7959 95.645 23.9453C95.7681 24.0947 95.916 24.2119 96.0889 24.2969C96.2646 24.3818 96.4639 24.4243 96.6865 24.4243C96.9736 24.4243 97.2168 24.3657 97.416 24.2485C97.6152 24.1313 97.7896 23.9746 97.939 23.7783L98.4312 24.1694C98.3286 24.3247 98.1982 24.4727 98.04 24.6133C97.8818 24.7539 97.687 24.8682 97.4556 24.9561C97.2271 25.0439 96.9561 25.0879 96.6426 25.0879ZM37.4922 36.187V33.7393C37.4922 33.5518 37.4541 33.3892 37.3779 33.2515C37.3047 33.1108 37.1934 33.0024 37.0439 32.9263C36.8945 32.8501 36.71 32.812 36.4902 32.812C36.2852 32.812 36.105 32.8472 35.9497 32.9175C35.7974 32.9878 35.6772 33.0801 35.5894 33.1943C35.5044 33.3086 35.4619 33.4316 35.4619 33.5635H34.6489C34.6489 33.3936 34.6929 33.2251 34.7808 33.0581C34.8687 32.8911 34.9946 32.7402 35.1587 32.6055C35.3257 32.4678 35.5249 32.3594 35.7563 32.2803C35.9907 32.1982 36.2515 32.1572 36.5386 32.1572C36.8843 32.1572 37.189 32.2158 37.4526 32.333C37.7192 32.4502 37.9272 32.6274 38.0767 32.8647C38.229 33.0991 38.3052 33.3936 38.3052 33.748V35.9629C38.3052 36.1211 38.3184 36.2896 38.3447 36.4683C38.374 36.647 38.4165 36.8008 38.4722 36.9297V37H37.624C37.583 36.9062 37.5508 36.7817 37.5273 36.6265C37.5039 36.4683 37.4922 36.3218 37.4922 36.187ZM37.6328 34.1172L37.6416 34.6885H36.8198C36.5884 34.6885 36.3818 34.7075 36.2002 34.7456C36.0186 34.7808 35.8662 34.835 35.7432 34.9082C35.6201 34.9814 35.5264 35.0737 35.4619 35.1851C35.3975 35.2935 35.3652 35.4209 35.3652 35.5674C35.3652 35.7168 35.3989 35.853 35.4663 35.9761C35.5337 36.0991 35.6348 36.1973 35.7695 36.2705C35.9072 36.3408 36.0757 36.376 36.2749 36.376C36.5239 36.376 36.7437 36.3232 36.9341 36.2178C37.1245 36.1123 37.2754 35.9834 37.3867 35.8311C37.501 35.6787 37.5625 35.5308 37.5713 35.3872L37.9185 35.7783C37.8979 35.9014 37.8423 36.0376 37.7515 36.187C37.6606 36.3364 37.5391 36.48 37.3867 36.6177C37.2373 36.7524 37.0586 36.8652 36.8506 36.9561C36.6455 37.0439 36.4141 37.0879 36.1562 37.0879C35.834 37.0879 35.5513 37.0249 35.3081 36.8989C35.0679 36.7729 34.8804 36.6045 34.7456 36.3936C34.6138 36.1797 34.5479 35.9409 34.5479 35.6772C34.5479 35.4224 34.5977 35.1982 34.6973 35.0049C34.7969 34.8086 34.9404 34.646 35.1279 34.5171C35.3154 34.3853 35.541 34.2856 35.8047 34.2183C36.0684 34.1509 36.3628 34.1172 36.688 34.1172H37.6328ZM42.6558 32.2451V32.9175H40.4585V37H39.6455V32.2451H42.6558ZM45.2485 37.0879C44.9175 37.0879 44.6172 37.0322 44.3477 36.9209C44.0811 36.8066 43.8511 36.647 43.6577 36.4419C43.4673 36.2368 43.3208 35.9937 43.2183 35.7124C43.1157 35.4312 43.0645 35.1235 43.0645 34.7896V34.605C43.0645 34.2183 43.1216 33.874 43.2358 33.5723C43.3501 33.2676 43.5054 33.0098 43.7017 32.7988C43.8979 32.5879 44.1206 32.4282 44.3696 32.3198C44.6187 32.2114 44.8765 32.1572 45.1431 32.1572C45.4829 32.1572 45.7759 32.2158 46.022 32.333C46.271 32.4502 46.4746 32.6143 46.6328 32.8252C46.791 33.0332 46.9082 33.2793 46.9844 33.5635C47.0605 33.8447 47.0986 34.1523 47.0986 34.4863V34.8511H43.5479V34.1875H46.2856V34.126C46.2739 33.915 46.23 33.71 46.1538 33.5107C46.0806 33.3115 45.9634 33.1475 45.8022 33.0186C45.6411 32.8896 45.4214 32.8252 45.1431 32.8252C44.9585 32.8252 44.7886 32.8647 44.6333 32.9438C44.478 33.02 44.3447 33.1343 44.2334 33.2866C44.1221 33.439 44.0356 33.625 43.9741 33.8447C43.9126 34.0645 43.8818 34.3179 43.8818 34.605V34.7896C43.8818 35.0151 43.9126 35.2275 43.9741 35.4268C44.0386 35.623 44.1309 35.7959 44.251 35.9453C44.374 36.0947 44.522 36.2119 44.6948 36.2969C44.8706 36.3818 45.0698 36.4243 45.2925 36.4243C45.5796 36.4243 45.8228 36.3657 46.022 36.2485C46.2212 36.1313 46.3955 35.9746 46.5449 35.7783L47.0371 36.1694C46.9346 36.3247 46.8042 36.4727 46.646 36.6133C46.4878 36.7539 46.293 36.8682 46.0615 36.9561C45.833 37.0439 45.562 37.0879 45.2485 37.0879ZM51.2734 34.3062V34.9653H48.7598V34.3062H51.2734ZM48.9312 32.2451V37H48.1182V32.2451H48.9312ZM51.9326 32.2451V37H51.1152V32.2451H51.9326ZM55.1802 32.2451V37H54.3628V32.2451H55.1802ZM56.7754 32.2451V32.9043H52.7983V32.2451H56.7754ZM59.1265 36.4199C59.3198 36.4199 59.4985 36.3804 59.6626 36.3013C59.8267 36.2222 59.9614 36.1138 60.0669 35.9761C60.1724 35.8354 60.2324 35.6758 60.2471 35.4971H61.0205C61.0059 35.7783 60.9106 36.0405 60.7349 36.2837C60.562 36.5239 60.335 36.7188 60.0537 36.8682C59.7725 37.0146 59.4634 37.0879 59.1265 37.0879C58.769 37.0879 58.457 37.0249 58.1904 36.8989C57.9268 36.7729 57.707 36.6001 57.5312 36.3804C57.3584 36.1606 57.228 35.9087 57.1401 35.6245C57.0552 35.3374 57.0127 35.0342 57.0127 34.7148V34.5303C57.0127 34.2109 57.0552 33.9092 57.1401 33.625C57.228 33.3379 57.3584 33.0845 57.5312 32.8647C57.707 32.645 57.9268 32.4722 58.1904 32.3462C58.457 32.2202 58.769 32.1572 59.1265 32.1572C59.4985 32.1572 59.8237 32.2334 60.1021 32.3857C60.3804 32.5352 60.5986 32.7402 60.7568 33.001C60.918 33.2588 61.0059 33.5518 61.0205 33.8799H60.2471C60.2324 33.6836 60.1768 33.5063 60.0801 33.3481C59.9863 33.1899 59.8574 33.064 59.6934 32.9702C59.5322 32.8735 59.3433 32.8252 59.1265 32.8252C58.8774 32.8252 58.668 32.875 58.498 32.9746C58.3311 33.0713 58.1978 33.2031 58.0981 33.3701C58.0015 33.5342 57.9312 33.7173 57.8872 33.9194C57.8462 34.1187 57.8257 34.3223 57.8257 34.5303V34.7148C57.8257 34.9229 57.8462 35.1279 57.8872 35.3301C57.9282 35.5322 57.9971 35.7153 58.0938 35.8794C58.1934 36.0435 58.3267 36.1753 58.4937 36.2749C58.6636 36.3716 58.8745 36.4199 59.1265 36.4199ZM63.8726 32.2451V37H63.0552V32.2451H63.8726ZM65.4678 32.2451V32.9043H61.4907V32.2451H65.4678ZM68.5 34.9082H66.9399L66.9312 34.2578H68.2056C68.4575 34.2578 68.667 34.2329 68.834 34.1831C69.0039 34.1333 69.1313 34.0586 69.2163 33.959C69.3013 33.8594 69.3438 33.7363 69.3438 33.5898C69.3438 33.4756 69.3188 33.376 69.269 33.291C69.2222 33.2031 69.1504 33.1313 69.0537 33.0757C68.957 33.0171 68.8369 32.9746 68.6934 32.9482C68.5527 32.9189 68.3872 32.9043 68.1968 32.9043H67.1553V37H66.3423V32.2451H68.1968C68.4985 32.2451 68.7695 32.2715 69.0098 32.3242C69.2529 32.377 69.4595 32.4575 69.6294 32.5659C69.8022 32.6714 69.9341 32.8062 70.0249 32.9702C70.1157 33.1343 70.1611 33.3276 70.1611 33.5503C70.1611 33.6938 70.1318 33.8301 70.0732 33.959C70.0146 34.0879 69.9282 34.2021 69.814 34.3018C69.6997 34.4014 69.5591 34.4834 69.3921 34.5479C69.2251 34.6094 69.0332 34.6489 68.8164 34.6665L68.5 34.9082ZM68.5 37H66.6455L67.0498 36.3408H68.5C68.7256 36.3408 68.9131 36.313 69.0625 36.2573C69.2119 36.1987 69.3232 36.1167 69.3965 36.0112C69.4727 35.9028 69.5107 35.7739 69.5107 35.6245C69.5107 35.4751 69.4727 35.3477 69.3965 35.2422C69.3232 35.1338 69.2119 35.0518 69.0625 34.9961C68.9131 34.9375 68.7256 34.9082 68.5 34.9082H67.2651L67.2739 34.2578H68.8164L69.1108 34.5039C69.3716 34.5244 69.5928 34.5889 69.7744 34.6973C69.9561 34.8057 70.0938 34.9434 70.1875 35.1104C70.2812 35.2744 70.3281 35.4531 70.3281 35.6465C70.3281 35.8691 70.2856 36.0654 70.2007 36.2354C70.1187 36.4053 69.9985 36.5474 69.8403 36.6616C69.6821 36.7729 69.4902 36.8579 69.2646 36.9165C69.0391 36.9722 68.7842 37 68.5 37ZM71.2026 34.6753V34.5742C71.2026 34.2314 71.2524 33.9136 71.3521 33.6206C71.4517 33.3247 71.5952 33.0684 71.7827 32.8516C71.9702 32.6318 72.1973 32.4619 72.4639 32.3418C72.7305 32.2188 73.0293 32.1572 73.3604 32.1572C73.6943 32.1572 73.9946 32.2188 74.2612 32.3418C74.5308 32.4619 74.7593 32.6318 74.9468 32.8516C75.1372 33.0684 75.2822 33.3247 75.3818 33.6206C75.4814 33.9136 75.5312 34.2314 75.5312 34.5742V34.6753C75.5312 35.0181 75.4814 35.3359 75.3818 35.6289C75.2822 35.9219 75.1372 36.1782 74.9468 36.3979C74.7593 36.6147 74.5322 36.7847 74.2656 36.9077C74.002 37.0278 73.7031 37.0879 73.3691 37.0879C73.0352 37.0879 72.7349 37.0278 72.4683 36.9077C72.2017 36.7847 71.9731 36.6147 71.7827 36.3979C71.5952 36.1782 71.4517 35.9219 71.3521 35.6289C71.2524 35.3359 71.2026 35.0181 71.2026 34.6753ZM72.0156 34.5742V34.6753C72.0156 34.9126 72.0435 35.1367 72.0991 35.3477C72.1548 35.5557 72.2383 35.7402 72.3496 35.9014C72.4639 36.0625 72.606 36.1899 72.7759 36.2837C72.9458 36.3745 73.1436 36.4199 73.3691 36.4199C73.5918 36.4199 73.7866 36.3745 73.9536 36.2837C74.1235 36.1899 74.2642 36.0625 74.3755 35.9014C74.4868 35.7402 74.5703 35.5557 74.626 35.3477C74.6846 35.1367 74.7139 34.9126 74.7139 34.6753V34.5742C74.7139 34.3398 74.6846 34.1187 74.626 33.9106C74.5703 33.6997 74.4854 33.5137 74.3711 33.3525C74.2598 33.1885 74.1191 33.0596 73.9492 32.9658C73.7822 32.8721 73.5859 32.8252 73.3604 32.8252C73.1377 32.8252 72.9414 32.8721 72.7715 32.9658C72.6045 33.0596 72.4639 33.1885 72.3496 33.3525C72.2383 33.5137 72.1548 33.6997 72.0991 33.9106C72.0435 34.1187 72.0156 34.3398 72.0156 34.5742Z" fill="black"/>
</svg>
